<?xml version="1.0" encoding="UTF-8" standalone="no"?>
<!-- Created with Inkscape (http://www.inkscape.org/) -->

<svg
   width="120"
   height="120"
   viewBox="0 0 120 120"
   version="1.1"
   id="svg1"
   xml:space="preserve"
   inkscape:version="1.4.2 (f4327f4, 2025-05-13)"
   sodipodi:docname="academy.svg"
   xmlns:inkscape="http://www.inkscape.org/namespaces/inkscape"
   xmlns:sodipodi="http://sodipodi.sourceforge.net/DTD/sodipodi-0.dtd"
   xmlns="http://www.w3.org/2000/svg"
   xmlns:svg="http://www.w3.org/2000/svg"><sodipodi:namedview
     id="namedview1"
     pagecolor="#ffffff"
     bordercolor="#000000"
     borderopacity="0.25"
     inkscape:showpageshadow="2"
     inkscape:pageopacity="0.0"
     inkscape:pagecheckerboard="0"
     inkscape:deskcolor="#d1d1d1"
     inkscape:document-units="px"
     inkscape:zoom="4.2887654"
     inkscape:cx="129.64104"
     inkscape:cy="72.864792"
     inkscape:window-width="1920"
     inkscape:window-height="991"
     inkscape:window-x="2391"
     inkscape:window-y="-9"
     inkscape:window-maximized="1"
     inkscape:current-layer="layer1" /><defs
     id="defs1" /><g
     inkscape:label="Слой 1"
     inkscape:groupmode="layer"
     id="layer1"><path
       style="fill:#000000;stroke-width:0.211906"
       d="m 56.110573,119.68561 c -0.990663,-0.10422 -2.850147,-0.28594 -4.132183,-0.40378 -2.737726,-0.25168 -7.235607,-1.00122 -8.264368,-1.3772 -1.959721,-0.71621 -2.43693,-1.36289 -2.43693,-3.30236 0,-3.20114 1.440852,-5.2724 4.284185,-6.15861 0.84879,-0.26454 1.613312,-0.58213 1.698939,-0.70572 0.08563,-0.1236 0.157146,-2.63006 0.15893,-5.56993 0.0032,-5.345201 0.0032,-5.345201 -0.632475,-5.673939 -1.127923,-0.583275 -0.624061,-2.225029 0.682871,-2.225029 0.331516,0 0.376663,-0.216706 0.376663,-1.808014 0,-3.635694 0.611657,-4.122005 5.19172,-4.12783 3.322745,-0.004 3.499426,-0.03876 3.878008,-0.758564 0.844446,-1.60551 1.096449,-3.580198 0.693498,-5.434219 -0.76048,-3.49905 -0.909846,-4.128764 -1.068833,-4.506057 -0.430033,-1.020536 -0.90046,-5.659191 -0.778911,-7.680479 0.394186,-6.555093 0.394684,-6.696418 0.02818,-8.000638 -0.196508,-0.699291 -0.401192,-1.509828 -0.454851,-1.801205 -0.09774,-0.530741 -0.455689,-2.266698 -0.917581,-4.450045 -0.308997,-1.460614 -0.173842,-10.308626 0.177221,-11.601898 0.687494,-2.532641 0.582751,-3.443488 -0.395983,-3.443488 -0.397492,0 -2.144476,-1.771223 -2.570357,-2.606015 -0.434376,-0.851449 -0.722182,-2.18132 -1.453858,-6.717887 -0.234966,-1.456861 -0.525094,-2.934911 -0.644727,-3.284556 -0.119633,-0.34965 -0.275529,-1.610817 -0.346437,-2.802601 -0.227693,-3.826948 0.917561,-5.389359 5.548207,-7.569123 3.845405,-1.810137 4.224582,-2.356021 3.205551,-4.614898 C 57.038909,11.07063 56.714765,7.9289839 57.20276,5.9447339 58.406602,1.0497717 65.497618,0.40061601 67.693546,4.9843518 c 0.675376,1.4097656 0.536399,5.6804172 -0.247147,7.5945892 -1.169416,2.856838 -0.982087,3.163009 3.173439,5.186612 5.137081,2.5016 6.18981,4.693326 4.989809,10.388543 -0.135067,0.641021 -0.37423,2.023714 -0.531468,3.072652 -0.991558,6.614628 -1.735973,8.160038 -4.740584,9.841504 -0.243125,0.136058 -0.250776,0.378911 -0.04451,1.412654 1.212567,6.07702 1.131226,10.868957 -0.289171,17.03541 -0.940391,4.082576 -0.973962,4.393878 -0.742703,6.886974 0.453444,4.888402 0.470772,5.45127 0.214045,6.952834 -0.322165,1.884292 -0.917578,4.762988 -1.476582,7.138972 -0.745968,3.170655 -0.458866,6.485908 0.644557,7.442902 0.402679,0.349234 0.829471,0.397651 3.505532,0.397651 4.676966,0 5.152487,0.342174 5.152487,3.707561 0,1.747165 0.05126,2.042559 0.370836,2.138158 1.612237,0.482253 2.049312,1.510542 0.916182,2.155451 -0.648616,0.369149 -0.648616,0.369149 -0.649958,6.037661 -0.0011,4.96486 0.03921,5.6685 0.325191,5.6685 2.243604,0 4.786421,2.01557 5.496662,4.3569 0.816628,2.69207 0.06485,4.9443 -1.773072,5.31188 -0.367636,0.0735 -0.71975,0.21674 -0.782479,0.31823 -0.06272,0.10152 -0.32298,0.18428 -0.578336,0.18398 -0.255355,-2.1e-4 -1.084112,0.13623 -1.841675,0.30342 -4.951521,1.09274 -17.329776,1.73049 -22.674036,1.16822 z m 12.078692,-2.1143 c 4.038041,-0.24991 6.715996,-0.53907 8.79414,-0.94958 0.932385,-0.18418 2.076685,-0.40783 2.542877,-0.49703 2.026342,-0.38761 2.401557,-0.8682 2.123833,-2.7202 -0.369159,-2.4617 -3.273078,-3.77086 -6.679831,-3.0114 -4.323094,0.96372 -17.893596,1.00939 -23.639808,0.0796 -5.086977,-0.82318 -7.350517,0.13702 -7.827874,3.32056 -0.17796,1.18684 0.08843,1.77401 0.893694,1.96983 6.652966,1.61786 15.726651,2.30746 23.792969,1.80826 z m 3.072651,-8.90802 c 4.799729,-0.35704 4.344091,0.30985 4.344091,-6.35822 0,-5.705045 0,-5.705045 -12.92632,-5.705045 -10.198427,0 -12.926857,0.05594 -12.928865,0.264883 -0.0066,0.693849 -0.01092,10.678152 -0.0046,10.888042 0.01154,0.38563 1.585666,0.67492 4.986988,0.91653 1.748231,0.12418 3.655393,0.2623 4.238138,0.30692 1.604593,0.12288 8.942394,-0.0641 12.290599,-0.31311 z m 3.814322,-16.301406 c 0,-1.801216 0,-1.801216 -12.290598,-1.856482 -11.366421,-0.05112 -12.310517,-0.02812 -12.555482,0.305386 -0.272434,0.370937 -0.365903,2.524621 -0.135612,3.124748 0.11645,0.303468 1.361707,0.331458 12.555482,0.282218 12.42621,-0.05463 12.42621,-0.05463 12.42621,-1.85587 z M 61.719419,87.964813 c 0.07953,-0.203963 0.119269,-9.970365 0.0883,-21.703129 -0.05937,-22.487353 -0.0782,-22.002663 0.855536,-22.002663 0.878857,0 0.864061,-0.375974 0.864061,21.957409 0,11.796868 0.05788,21.599676 0.128626,21.784025 0.118431,0.308631 2.414257,0.533663 2.414257,0.236652 0,-0.05413 -0.16153,-0.554834 -0.358956,-1.11252 -0.457999,-1.293733 -0.452028,-4.706525 0.0116,-6.629491 1.827355,-7.579235 1.762327,-6.805857 1.27976,-15.220074 -0.109501,-1.909268 -0.05363,-2.489299 0.438875,-4.556001 0.310393,-1.302502 0.700657,-2.940339 0.867256,-3.639633 0.928096,-3.895678 0.875006,-10.317592 -0.112984,-13.666592 -0.674779,-2.28732 -0.248935,-3.485352 1.614263,-4.54143 1.291568,-0.73207 1.913701,-1.718862 2.281258,-3.618387 0.180416,-0.932391 0.423505,-2.172048 0.540198,-2.754788 C 74.638984,22.47302 74.548254,22.144932 69.003683,19.379144 65.16009,17.461857 64.692807,16.95805 64.692807,14.73132 c 0,-1.199885 0.116203,-1.760086 0.556358,-2.682143 1.670173,-3.4987696 0.702628,-7.5003588 -1.91471,-7.9188877 -1.58352,-0.2532105 -3.833366,0.7739106 -3.833366,1.7500433 0,0.1994241 -0.106193,0.4687938 -0.235993,0.5985869 -0.501182,0.5011838 0.09144,4.8251365 0.833734,6.0832405 0.695391,1.178599 0.655686,3.324988 -0.07933,4.288652 -0.497962,0.652862 -2.626476,2.191293 -3.031789,2.191293 -0.530661,0 -3.787174,1.850507 -4.485605,2.548939 -1.359631,1.359631 -1.519842,2.766217 -0.735466,6.457103 0.173379,0.815838 0.513859,2.627641 0.756623,4.02623 0.242762,1.398584 0.525783,3.009335 0.628933,3.579441 0.236493,1.307094 1.11314,2.586676 2.126239,3.10352 2.253282,1.149541 2.379206,1.674085 1.498816,6.243356 -0.913965,4.743526 -0.606086,9.047441 1.171203,16.372546 0.41952,1.729057 0.502229,2.489109 0.403549,3.708375 -0.06827,0.843469 -0.180548,3.059318 -0.249517,4.924086 -0.128207,3.466429 -0.0847,3.88268 0.786181,7.522703 0.93767,3.919147 1.249,7.013415 0.858666,8.53419 -0.604561,2.355417 -0.628757,2.273055 0.667833,2.273055 0.908071,0 1.191026,-0.08044 1.304263,-0.370836 z M 61.116442,39.854612 c -2.940486,-1.57742 -4.665503,-4.75517 -4.923454,-9.069767 -0.16279,-2.722908 -0.183008,-2.689478 1.758641,-2.90784 1.279038,-0.143845 3.054606,-0.856868 3.580303,-1.437755 0.53698,-0.593357 1.393806,-0.495185 2.566637,0.29407 0.942996,0.634591 1.921543,0.944419 4.122095,1.305157 0.601868,0.09866 0.803199,0.246766 0.909112,0.668752 0.218533,0.870708 -0.326984,5.324805 -0.723834,5.910032 -0.07902,0.116547 -0.312048,0.667492 -0.51781,1.224322 -0.669005,1.810439 -3.9261,4.638209 -5.281447,4.585275 -0.251222,-0.0097 -0.92183,-0.267318 -1.490243,-0.572246 z m 2.053966,-1.352834 c 0.670657,-0.358846 2.445297,-2.081267 2.792457,-2.710286 0.786055,-1.42424 0.976319,-2.055806 1.37055,-4.549431 0.244966,-1.549485 0.263262,-1.521621 -1.198269,-1.825032 -0.659505,-0.136914 -1.72746,-0.534784 -2.373232,-0.884165 -0.981014,-0.530748 -1.241053,-0.593433 -1.581025,-0.381115 -1.241712,0.775465 -1.923149,1.058452 -3.11188,1.292325 -1.318304,0.25936 -1.318304,0.25936 -1.190762,1.625173 0.263343,2.820075 1.414018,5.201528 3.22458,6.673638 1.356892,1.103241 1.39671,1.117861 2.067581,0.758893 z"
       id="path1" /></g></svg>
