<svg version="1.1" id="Layer_1" xmlns="http://www.w3.org/2000/svg" xmlns:xlink="http://www.w3.org/1999/xlink" x="0px" y="0px"
	 width="100%" viewBox="0 0 224 352" enable-background="new 0 0 224 352" xml:space="preserve">
<path fill="#000000" opacity="1.000000" stroke="none" 
	d="
M141.911240,17.024715 
	C150.667892,19.341331 159.100510,18.878349 167.596146,18.155848 
	C180.616669,17.048532 190.904480,22.818518 199.348770,32.051647 
	C214.127731,48.211193 216.916351,67.696747 210.899933,87.626648 
	C205.754410,104.671669 203.231567,121.846878 201.125793,139.355484 
	C197.963638,165.647659 188.947250,190.407196 179.246185,214.896912 
	C172.301636,232.428040 158.615265,240.702286 140.672195,243.219070 
	C139.190643,243.426880 137.712952,243.664490 136.237198,243.910675 
	C127.838707,245.311737 127.837364,245.314423 129.593307,253.776276 
	C129.965012,255.567535 130.340378,257.358276 130.738022,259.143890 
	C132.907257,268.884430 132.902054,269.028809 143.067184,269.573608 
	C150.905533,269.993713 158.651810,270.958527 166.324249,272.526611 
	C174.541092,274.205963 178.227417,278.768372 178.264725,287.239075 
	C178.302124,295.736206 178.304718,304.235077 178.161667,312.730469 
	C178.114380,315.538177 178.969604,317.378174 181.544266,318.753540 
	C186.246124,321.265198 188.539734,325.393341 187.915283,330.724579 
	C187.280411,336.144867 183.431625,338.579865 178.552536,339.798981 
	C167.228775,342.628418 155.722961,344.321320 144.104095,345.289917 
	C123.466759,347.010345 102.848785,346.665619 82.296989,344.220306 
	C73.893341,343.220398 65.502579,341.936218 57.331219,339.545593 
	C53.068134,338.298370 49.546974,336.271881 48.776482,331.517761 
	C47.964783,326.509399 49.382385,322.025848 53.851597,319.392426 
	C57.252048,317.388794 58.135178,314.836487 58.042919,311.176575 
	C57.849854,303.517212 57.897594,295.848145 58.011673,288.185547 
	C58.159527,278.254395 61.805370,274.012573 71.541229,272.125519 
	C80.385063,270.411407 89.366638,269.870636 98.314713,269.089508 
	C101.645592,268.798737 103.459778,267.345398 104.031654,264.015961 
	C104.848114,259.262512 105.685219,254.496628 106.874039,249.827881 
	C107.920189,245.719406 106.268539,244.466034 102.452087,244.256042 
	C94.459412,243.816284 86.583130,242.529144 78.849876,240.402390 
	C65.866196,236.831665 57.116669,228.890900 52.534340,216.066666 
	C45.307617,195.841812 39.354210,175.213531 32.647785,154.825775 
	C31.505140,151.352097 30.968023,147.473312 28.582560,144.674118 
	C20.368055,135.034973 18.220402,124.068123 20.742800,111.953781 
	C22.683977,102.630852 21.081656,93.410309 20.240202,84.145500 
	C19.022400,70.736923 18.837141,57.232380 25.885483,45.230556 
	C37.388664,25.643085 55.002705,16.071594 77.690567,16.365044 
	C86.191620,16.475000 94.544212,16.521667 103.009903,14.961966 
	C115.885704,12.589750 128.858856,12.676039 141.911240,17.024715 
M53.906689,71.924690 
	C47.487698,70.784271 46.088459,71.852051 46.056374,78.366585 
	C46.025204,84.693825 46.330112,91.023315 46.267223,97.349625 
	C46.213642,102.739830 44.210304,107.451180 40.228558,111.138687 
	C38.500965,112.738609 36.355804,113.269775 34.403812,111.399757 
	C32.463566,109.540977 32.737850,107.477440 34.481438,105.670776 
	C38.172707,101.845985 38.797054,97.051117 38.337494,92.203583 
	C37.880020,87.378059 37.688648,82.566528 37.720455,77.742043 
	C37.797600,66.043228 44.399761,60.955452 55.603420,63.911503 
	C57.937538,64.527351 60.218479,65.237251 63.375599,64.208771 
	C52.537170,55.341301 48.831295,44.465031 51.821899,30.534821 
	C39.810398,37.678608 32.069469,46.709118 29.215067,59.497742 
	C27.302794,68.065323 27.900091,76.748016 28.661438,85.366135 
	C29.556913,95.502541 30.055855,105.570312 28.525454,115.710884 
	C27.298450,123.841110 27.945459,131.620377 34.233326,138.036377 
	C37.069099,140.929947 38.124031,144.948990 39.338467,148.771454 
	C45.988956,169.703995 52.122150,190.794754 59.330872,211.558914 
	C63.665054,224.043198 72.093941,231.111603 84.671608,233.647781 
	C102.933891,237.330170 121.257500,237.961304 139.755905,235.107483 
	C153.819321,232.937866 165.054611,227.362457 170.982422,213.532745 
	C179.466858,193.738388 185.708664,173.252945 190.795624,152.356476 
	C194.706406,136.291595 193.631912,119.586868 197.457123,103.534637 
	C197.746338,102.320984 197.452408,101.186623 196.584274,100.293007 
	C189.474106,92.974068 189.114761,84.394646 191.837448,75.215462 
	C192.504089,72.967987 193.539978,70.184532 190.665741,69.086906 
	C185.512634,67.119011 181.865402,62.002430 175.870560,62.048561 
	C174.852509,62.056400 173.863235,63.159271 172.824966,63.685833 
	C169.819321,65.210167 166.652924,66.278297 163.254059,66.124031 
	C158.946899,65.928543 156.663696,62.972321 157.412003,58.745674 
	C157.643250,57.439548 158.089645,56.173065 158.383209,54.876133 
	C159.175171,51.377251 158.128906,49.626240 154.265915,50.636318 
	C152.817719,51.014984 151.357895,51.359608 149.931000,51.807693 
	C139.801147,54.988785 130.525055,53.795155 122.486588,46.423286 
	C120.763206,44.842827 119.371635,44.433453 117.383263,46.250168 
	C108.923286,53.979786 99.073639,56.294315 87.777626,54.236862 
	C77.881569,52.434402 75.194374,54.851746 75.406746,64.654381 
	C75.515671,69.682220 73.090210,71.961098 68.609383,72.904137 
	C63.907280,73.893745 59.333923,72.838287 53.906689,71.924690 
M109.282188,272.643280 
	C106.763046,276.047424 103.125336,277.090759 99.176682,277.148407 
	C90.148483,277.280212 81.298805,278.832336 72.412292,280.174927 
	C68.254341,280.803101 66.186905,282.972137 66.193420,287.165894 
	C66.207153,295.997620 66.292450,304.830627 66.165718,313.660461 
	C66.117226,317.039429 67.612900,318.277405 70.806160,318.793823 
	C90.763130,322.021332 110.852951,323.442230 131.024521,322.534546 
	C142.471237,322.019470 153.952103,321.206635 165.252274,318.918121 
	C167.973694,318.366943 170.041672,317.602325 170.025650,314.323242 
	C169.980072,304.992615 170.032257,295.661346 169.958023,286.331055 
	C169.930298,282.847656 168.107300,280.855316 164.581360,280.249573 
	C155.880768,278.754791 147.167206,277.461578 138.321854,277.207306 
	C129.418137,276.951294 125.790092,273.881653 123.864723,265.075317 
	C122.763741,260.039612 121.800468,254.972580 120.622513,249.955475 
	C120.199226,248.152649 120.343269,245.453842 117.588562,245.533188 
	C115.063736,245.605911 115.585426,248.092255 115.123489,249.778580 
	C113.108421,257.134766 113.340782,265.040161 109.282188,272.643280 
M204.628922,80.116531 
	C206.136826,72.135796 205.708832,64.282562 203.705414,56.387165 
	C198.571152,36.153404 183.871078,25.439079 163.112015,26.923645 
	C156.124481,27.423355 149.188065,27.232525 142.260880,25.576799 
	C137.979675,24.553511 133.807373,22.594769 129.185638,22.884279 
	C127.955963,26.860821 126.821770,30.666555 125.592987,34.441498 
	C125.014122,36.219826 125.325386,37.667351 126.625137,39.005264 
	C129.981308,42.459972 133.775269,44.886810 138.811813,45.039124 
	C143.399597,45.177868 147.701569,43.922211 152.055252,42.810226 
	C162.798920,40.066154 167.194641,43.544437 166.955475,54.542702 
	C166.942230,55.151726 167.140457,55.765343 167.244263,56.401451 
	C172.367645,55.030678 172.742462,54.675285 174.759186,48.308891 
	C175.515518,45.921314 176.908875,44.450840 179.471558,44.917881 
	C181.729019,45.329300 183.275452,47.241276 182.733063,49.254906 
	C181.470490,53.942165 184.293442,55.993893 187.466110,58.026283 
	C201.325882,66.904755 201.308334,66.895393 198.645355,82.771530 
	C198.124893,85.874382 198.268936,88.872902 201.212509,91.203453 
	C203.373856,87.859390 203.398117,84.232445 204.628922,80.116531 
M59.899258,46.451778 
	C61.515823,50.032219 62.913548,53.791645 67.248283,55.699909 
	C73.074188,45.550503 81.490364,44.124031 92.155586,46.383747 
	C106.131622,49.344952 120.362823,36.446320 119.509026,22.537687 
	C116.449615,21.505836 113.225296,21.756298 110.197548,22.332129 
	C98.215889,24.610846 86.228157,25.213728 74.012909,24.707373 
	C63.648556,24.277740 59.520573,28.735569 58.776932,38.863346 
	C58.611118,41.121590 59.313404,43.443577 59.899258,46.451778 
M107.373489,337.995270 
	C118.680000,339.112518 129.981110,338.130859 141.252197,337.564209 
	C152.706726,336.988373 164.086563,335.339722 175.234970,332.483429 
	C177.401306,331.928436 180.426331,331.478821 179.520508,328.208496 
	C178.630798,324.996338 176.118103,324.093506 172.808334,325.061249 
	C169.627228,325.991364 166.371704,326.739136 163.101440,327.280396 
	C141.850616,330.797455 120.456314,331.874542 98.999168,330.071350 
	C87.433823,329.099426 75.762314,328.494324 64.487389,325.369904 
	C61.022499,324.409790 57.626831,324.332489 56.714287,328.112976 
	C55.725815,332.208008 60.000324,332.089752 62.438499,332.675537 
	C76.876755,336.144257 91.564034,337.753754 107.373489,337.995270 
z"/>
<path fill="#000000" opacity="1.000000" stroke="none" 
	d="
M103.353943,125.439095 
	C89.695511,134.745697 72.630516,133.422333 63.169041,122.592888 
	C59.542053,118.441521 59.612362,116.775253 63.575851,112.950806 
	C73.406624,103.464912 90.200356,101.842979 101.952377,109.244431 
	C110.686417,114.745155 111.028664,118.012787 103.353943,125.439095 
M88.005791,112.583374 
	C81.606339,112.267517 75.591095,113.084259 70.736473,117.997475 
	C78.681236,125.664787 92.449226,125.421486 99.234077,117.680428 
	C96.570580,114.326904 92.824028,113.273041 88.005791,112.583374 
z"/>
<path fill="#000000" opacity="1.000000" stroke="none" 
	d="
M169.524078,131.133560 
	C159.745728,132.173691 151.692245,129.249741 144.730316,123.110397 
	C139.754486,118.722473 139.582367,116.471893 144.469284,112.273071 
	C152.577118,105.306824 161.947586,102.849335 172.378708,105.698769 
	C179.127258,107.542252 184.326859,113.053986 184.230957,117.747223 
	C184.126434,122.862595 179.390564,128.093765 172.848145,130.288376 
	C171.903992,130.605087 170.926361,130.822067 169.524078,131.133560 
M153.437210,119.500786 
	C158.998428,123.377785 165.070755,123.917343 171.399841,122.017288 
	C173.296417,121.447922 175.266632,120.262871 175.315338,118.017097 
	C175.364136,115.766464 173.397842,114.556908 171.573456,113.825394 
	C165.298904,111.309479 159.247009,112.213219 153.516876,115.565376 
	C152.107559,116.389824 151.180679,117.588928 153.437210,119.500786 
z"/>
<path fill="#000000" opacity="1.000000" stroke="none" 
	d="
M131.105301,192.528183 
	C128.239700,193.600739 125.719742,193.514511 123.475517,192.225845 
	C119.522034,189.955688 115.566628,190.200226 111.464531,191.578522 
	C107.497040,192.911606 103.446976,193.681686 99.217964,193.337234 
	C96.879257,193.146774 95.364319,192.057922 95.264740,189.712128 
	C95.164085,187.340942 96.647522,185.883789 98.940247,185.849197 
	C104.528252,185.764847 109.702797,183.867172 115.011528,182.536621 
	C115.814774,182.335281 116.809608,181.873062 117.438339,182.153549 
	C128.071579,186.897263 139.721176,180.268967 150.390976,185.166290 
	C152.646790,186.201691 155.088394,186.830917 154.856049,189.618576 
	C154.599136,192.700760 152.087555,193.565735 149.328781,193.241791 
	C147.534058,193.031036 145.742920,192.551727 144.025101,191.971085 
	C139.771606,190.533356 135.598984,190.165985 131.105301,192.528183 
z"/>
<path fill="#000000" opacity="1.000000" stroke="none" 
	d="
M128.490784,136.448059 
	C127.533165,126.901459 126.913475,117.796623 126.963326,108.666756 
	C126.974922,106.544388 127.498131,104.378349 128.088425,102.319115 
	C128.642807,100.385193 130.087433,99.296410 132.245163,99.545486 
	C134.529358,99.809166 135.492691,101.400398 135.258148,103.386002 
	C133.530228,118.014740 136.913940,132.482956 136.536423,147.064697 
	C136.470749,149.601746 136.112320,152.020050 133.048691,152.058090 
	C130.235245,152.093033 129.050934,149.902313 128.883209,147.364471 
	C128.653412,143.887421 128.654175,140.395126 128.490784,136.448059 
z"/>
<path fill="#000000" opacity="1.000000" stroke="none" 
	d="
M109.998039,170.366760 
	C107.018776,169.406464 104.675064,168.177963 103.415268,165.593704 
	C102.380943,163.471954 102.258392,161.288666 104.260406,159.696198 
	C106.324966,158.053986 108.064941,158.820480 109.911736,160.593353 
	C114.860390,165.343948 129.899734,167.899185 134.719513,165.076675 
	C136.637421,163.953537 138.032944,162.380524 139.344528,160.619949 
	C140.672424,158.837509 142.572952,158.129456 144.613281,159.368423 
	C146.867661,160.737411 146.909561,162.882538 145.994080,165.079788 
	C143.405670,171.292297 130.199158,176.977325 123.721512,174.403198 
	C119.372009,172.674774 115.018471,171.150726 109.998039,170.366760 
z"/>
<path fill="#000000" opacity="1.000000" stroke="none" 
	d="
M109.759323,197.443085 
	C119.487404,198.181198 128.811890,199.706665 138.272827,198.176025 
	C140.427582,197.827423 142.075211,199.338120 142.560745,201.543427 
	C143.120483,204.085815 141.432327,205.406113 139.339111,205.683395 
	C129.785217,206.948975 120.186531,207.306870 110.751877,204.974701 
	C106.841324,204.008026 106.457199,200.951401 109.759323,197.443085 
z"/>
</svg>