<svg version="1.1" id="Layer_1" xmlns="http://www.w3.org/2000/svg" xmlns:xlink="http://www.w3.org/1999/xlink" x="0px" y="0px"
	 width="100%" viewBox="0 0 672 1024" enable-background="new 0 0 672 1024" xml:space="preserve">
<path fill="#000000" opacity="1.000000" stroke="none" 
	d="
M196.986237,466.000000 
	C197.038116,534.830811 197.092148,603.161682 197.133926,671.492493 
	C197.140030,681.474304 200.980286,684.973877 210.765350,682.928101 
	C244.637634,675.846497 278.461151,668.531738 312.307220,661.324585 
	C376.742950,647.603821 441.180573,633.892090 505.620300,620.190063 
	C511.385559,618.964172 514.170593,620.144836 515.421631,624.190735 
	C516.824951,628.729126 514.916687,632.260559 509.810913,633.427246 
	C494.889099,636.837280 479.922058,640.051331 464.958435,643.275818 
	C441.537476,648.322754 418.119232,653.384583 394.663574,658.265869 
	C390.503143,659.131714 388.878693,660.959412 388.925568,665.319214 
	C389.136963,684.982422 389.011017,704.648926 389.102570,724.313843 
	C389.135254,731.333008 390.055298,732.195374 397.110718,732.963745 
	C419.452820,735.396973 441.807709,737.776367 463.385193,744.553528 
	C469.434540,746.453491 475.302734,748.778870 480.563873,752.458984 
	C487.022278,756.976685 490.465851,762.863647 490.390289,770.974060 
	C490.216339,789.638489 490.426392,808.306335 490.275452,826.971191 
	C490.243408,830.927979 491.353302,833.556152 495.031036,835.366882 
	C515.181519,845.288330 515.820557,877.410828 495.779327,888.736145 
	C483.061584,895.922913 469.235565,899.380371 455.204468,902.190979 
	C427.074341,907.825806 398.616302,910.366760 369.938995,911.568481 
	C341.746399,912.749756 313.625671,912.220764 285.559753,910.114502 
	C257.173584,907.984253 228.937897,904.378052 201.791428,895.060974 
	C197.525558,893.596802 193.561707,891.474609 189.542923,889.442078 
	C167.320587,878.202393 169.211472,845.734680 188.023987,835.892395 
	C192.489212,833.556274 193.836151,830.402771 193.761703,825.471313 
	C193.487518,807.309387 193.765350,789.139832 193.611221,770.975098 
	C193.542435,762.869324 196.970184,756.879150 203.523254,752.507874 
	C215.913925,744.242798 230.264069,741.668640 244.452362,738.811768 
	C258.485138,735.986328 272.728027,734.500183 286.948883,732.928040 
	C292.614410,732.301758 294.445526,730.615784 294.451508,725.087036 
	C294.466278,711.440796 294.165405,697.794495 294.059784,684.147644 
	C294.030762,680.399109 292.089417,680.297546 289.121613,680.941284 
	C267.654449,685.598083 246.008255,689.531006 224.723557,694.901245 
	C199.598724,701.240295 177.319534,696.747314 157.169220,680.650391 
	C145.745270,671.524353 140.485672,660.183899 140.512650,645.147339 
	C140.789001,491.152985 140.646500,337.157898 140.625549,183.163025 
	C140.622971,164.220840 150.960754,150.556839 169.720840,146.769333 
	C189.273880,142.821732 209.048996,139.948242 228.761215,136.820724 
	C261.785828,131.581070 294.833923,126.488754 327.878906,121.378365 
	C364.213776,115.759201 400.557770,110.198738 436.895020,104.594864 
	C456.795288,101.525864 476.713593,98.563202 496.576752,95.269020 
	C506.162781,93.679237 514.735046,95.249397 522.515869,101.199326 
	C527.013977,104.638992 531.718506,107.808289 536.323914,111.108032 
	C541.917236,115.115685 543.249084,120.723282 541.859253,127.049652 
	C540.560303,132.962372 535.949951,135.108536 530.515503,136.045990 
	C497.395721,141.759293 464.275726,147.471466 431.159668,153.206238 
	C395.586304,159.366516 360.017426,165.553009 324.446045,171.724899 
	C286.739929,178.267166 249.044083,184.869629 211.320068,191.307083 
	C199.936279,193.249664 196.373657,197.037216 196.367737,208.526855 
	C196.352539,238.025833 195.998322,267.530914 196.469818,297.022522 
	C197.367691,353.182281 196.679047,409.341644 196.986237,466.000000 
M442.609161,754.009216 
	C426.660034,750.456360 410.445526,748.789001 394.209900,747.357971 
	C383.494995,746.413513 375.904114,739.437073 374.671631,728.773865 
	C374.271423,725.311096 374.060913,721.808716 374.040588,718.322815 
	C373.944366,701.830811 373.857574,685.337646 373.967957,668.846191 
	C373.996857,664.522827 373.132172,662.920166 368.243622,664.022888 
	C350.396637,668.048706 332.463959,671.703064 314.525543,675.308228 
	C310.541260,676.108948 308.992188,677.912598 309.049744,682.037231 
	C309.237885,695.528198 308.971344,709.025330 309.137299,722.516907 
	C309.345123,739.413452 299.472809,746.929810 286.844452,747.654053 
	C274.413513,748.366943 261.993652,749.940369 249.742157,752.372986 
	C238.162796,754.672180 226.518112,756.784851 215.651306,761.721802 
	C210.407104,764.104431 207.944092,767.841431 208.043106,773.875427 
	C208.321899,790.863403 208.141129,807.858643 208.169510,824.851013 
	C208.197891,841.844604 208.570816,842.175903 225.049667,846.796692 
	C251.369995,854.177002 278.410217,856.596863 305.508698,857.470154 
	C343.782898,858.703552 382.089172,858.690002 420.192841,853.670959 
	C436.380310,851.538635 452.495239,849.075500 467.927063,843.452271 
	C475.042786,840.859375 475.781342,839.766785 475.797913,832.173828 
	C475.839691,813.016052 475.546478,793.851196 476.004791,774.703979 
	C476.172760,767.686401 473.266479,763.817383 467.318573,761.256409 
	C459.629303,757.945679 451.575012,755.922607 442.609161,754.009216 
M181.713455,629.500000 
	C181.693176,499.340302 181.681946,369.180603 181.627640,239.020935 
	C181.624725,232.028580 181.267227,225.036179 181.058121,218.044296 
	C181.007904,216.364914 180.985123,214.553986 179.354782,213.573212 
	C171.870407,209.070786 164.339722,204.645294 156.179092,199.809021 
	C156.179092,212.514786 156.174774,224.482224 156.179749,236.449661 
	C156.236816,373.775574 156.291840,511.101471 156.359482,648.427368 
	C156.365540,660.728516 169.381210,675.742310 181.713531,677.452881 
	C181.713531,661.774597 181.713531,646.137268 181.713455,629.500000 
M374.295074,872.116577 
	C349.333099,872.887756 324.399475,873.023926 299.430328,871.531311 
	C276.804443,870.178650 254.313766,868.096863 232.194092,863.143860 
	C220.211060,860.460632 208.042542,857.836121 198.230988,849.568420 
	C196.035263,847.718140 194.618347,849.111145 193.130951,850.555420 
	C185.738022,857.734131 187.879715,871.597412 197.311356,876.958435 
	C208.475754,883.304321 220.842697,886.141052 233.244324,888.629028 
	C266.827637,895.366577 300.885651,897.217285 335.021912,897.555298 
	C361.824463,897.820618 388.610626,896.742859 415.257080,893.607788 
	C436.414062,891.118652 457.513947,888.210449 477.745087,881.047058 
	C482.488251,879.367554 487.040680,877.312012 490.774414,873.859131 
	C496.278076,868.769287 496.759888,857.026855 491.770569,851.429626 
	C489.556091,848.945557 487.397858,847.535645 484.310089,850.593384 
	C480.815460,854.053955 476.198761,855.760742 471.645599,857.402466 
	C459.382294,861.824036 446.641296,864.241394 433.815826,866.270752 
	C414.406219,869.341858 394.846466,870.914124 374.295074,872.116577 
M225.266190,173.645950 
	C324.760834,156.418182 424.255493,139.190414 523.750122,121.962646 
	C515.867310,115.413666 509.032654,107.861473 497.953033,110.348534 
	C494.715271,111.075317 491.369354,111.310524 488.081329,111.824379 
	C459.481720,116.293983 430.888580,120.805687 402.284454,125.246254 
	C366.943634,130.732635 331.582581,136.089432 296.251526,141.637527 
	C259.113922,147.469330 221.997452,153.436127 184.881348,159.403625 
	C177.350616,160.614395 169.602203,161.298111 163.626877,167.005432 
	C159.117020,171.313004 157.505615,176.917206 160.495926,181.377701 
	C165.564590,188.938370 173.593277,192.596436 181.174713,196.870789 
	C189.672180,182.154022 194.258316,178.667969 206.685303,176.763458 
	C212.605927,175.856079 218.496185,174.750443 225.266190,173.645950 
z"/>
<path fill="#000000" opacity="1.000000" stroke="none" 
	d="
M526.622864,630.353516 
	C524.277649,627.929626 524.198975,625.496521 525.990417,623.314575 
	C528.752380,619.950439 529.030640,616.103210 529.030945,612.027588 
	C529.037476,520.549316 529.043457,429.070953 529.133972,337.592712 
	C529.168396,302.785767 529.446411,267.979126 529.549500,233.172180 
	C529.621521,208.853577 529.542664,184.534500 529.630310,160.216003 
	C529.648987,155.032394 532.503845,152.065903 537.022156,151.924591 
	C541.140137,151.795807 544.180176,154.552582 544.954346,159.351044 
	C545.243774,161.145172 545.193359,163.003967 545.193848,164.833298 
	C545.197327,178.664627 545.171448,192.495956 545.161194,206.327286 
	C545.087036,306.145599 545.009705,405.963898 544.944946,505.782196 
	C544.930725,527.771484 545.306946,549.755005 544.516479,571.749573 
	C544.068420,584.216125 544.898254,596.725525 545.004028,609.216980 
	C545.036316,613.033752 544.538757,616.852905 544.347534,620.674133 
	C543.955811,628.499939 534.426392,634.374634 526.622864,630.353516 
z"/>
<path fill="#000000" opacity="1.000000" stroke="none" 
	d="
M283.638123,418.216980 
	C282.509888,420.296997 281.558655,422.029877 280.496979,423.963959 
	C283.449066,427.082092 287.134247,429.454681 288.279083,434.017426 
	C291.010834,444.904633 284.905426,456.837524 273.820190,460.909454 
	C265.039551,464.134857 255.694290,465.033325 246.525101,466.546936 
	C242.907608,467.144104 240.750061,464.935822 240.690887,461.356537 
	C240.377380,442.395996 240.141998,423.433716 240.007996,404.471100 
	C239.983734,401.039581 241.596649,398.227081 245.209778,397.419495 
	C252.174255,395.862793 259.143188,394.003235 266.288361,393.768463 
	C281.745972,393.260529 288.900360,403.270599 283.638123,418.216980 
M268.311768,433.089905 
	C252.002487,434.097565 251.294312,434.819855 252.177795,449.546021 
	C252.217682,450.210907 252.230270,450.878906 252.304291,451.539978 
	C252.460815,452.937714 253.356430,453.782166 254.663330,453.531586 
	C260.667938,452.380310 267.047058,452.522644 272.407318,449.011230 
	C276.296295,446.463562 277.715973,442.651886 276.761749,438.141998 
	C275.912537,434.128510 272.800049,433.144989 268.311768,433.089905 
M261.011322,422.548950 
	C264.881195,421.603027 268.920105,421.032440 271.654327,417.621399 
	C273.803162,414.940613 274.596802,411.933624 273.149689,408.768250 
	C271.793488,405.801788 269.020111,405.061340 265.998718,405.329224 
	C263.687195,405.534149 261.371582,405.840149 259.097961,406.299774 
	C251.139862,407.908783 250.961243,406.838196 251.842361,415.742950 
	C252.639450,423.798462 252.419571,423.820221 261.011322,422.548950 
z"/>
<path fill="#000000" opacity="1.000000" stroke="none" 
	d="
M255.346222,525.315491 
	C252.200134,525.900635 252.381760,528.053955 252.382721,530.053833 
	C252.385300,535.381287 252.346893,540.710876 252.485718,546.035400 
	C252.591858,550.106384 251.275269,553.023621 246.816330,553.236877 
	C242.315918,553.452087 241.263412,550.106873 241.061935,546.602539 
	C240.794724,541.954956 240.918533,537.284302 240.894791,532.623474 
	C240.826935,519.304749 240.788742,505.985962 240.694519,492.667480 
	C240.670578,489.282593 241.244705,485.931519 244.847931,484.953064 
	C253.022385,482.733215 261.337616,480.752380 269.873047,481.071533 
	C277.216431,481.346191 283.153015,484.594940 285.919922,491.774445 
	C288.916962,499.551147 287.357483,506.878143 282.352112,513.387207 
	C278.350342,518.591125 272.932526,521.746399 266.519806,523.126404 
	C262.943176,523.896179 259.341278,524.548706 255.346222,525.315491 
M262.264740,493.026642 
	C252.285873,494.294861 252.284027,494.294861 252.314560,504.418732 
	C252.320572,506.407654 252.389664,508.397278 252.352997,510.385193 
	C252.305588,512.955383 253.505890,514.122253 256.037201,513.648438 
	C259.933136,512.919067 263.925629,512.652893 267.665741,511.156891 
	C273.377167,508.872406 276.787628,503.202301 275.341278,498.290253 
	C273.974884,493.649750 269.874207,491.827148 262.264740,493.026642 
z"/>
<path fill="#000000" opacity="1.000000" stroke="none" 
	d="
M288.846680,336.000000 
	C288.809662,328.007538 288.732391,320.514923 288.761749,313.022736 
	C288.768829,311.215546 288.868927,309.331360 289.384857,307.620941 
	C290.254425,304.738159 292.489716,303.262604 295.474579,303.491913 
	C298.681366,303.738312 300.113434,305.947906 300.173218,308.945526 
	C300.278595,314.225281 300.202667,319.508698 300.202667,325.560913 
	C303.098267,324.259796 305.111389,323.236725 307.208435,322.432373 
	C319.398102,317.757019 329.734802,324.428192 330.188812,337.422913 
	C330.444458,344.740479 330.270966,352.073425 330.267670,359.399445 
	C330.265900,363.397614 328.640839,366.519043 324.385376,366.650482 
	C319.677704,366.795837 318.911438,363.072144 318.847321,359.348846 
	C318.741302,353.189728 318.784698,347.028137 318.755310,340.867615 
	C318.740387,337.739319 318.138428,334.842072 315.106689,333.182648 
	C311.873474,331.412933 308.919830,332.674194 306.193787,334.409210 
	C302.235809,336.928253 300.393127,340.729431 300.348328,345.363251 
	C300.287140,351.689758 300.249329,358.018585 300.354431,364.343903 
	C300.421936,368.406738 298.959473,371.559296 294.715057,371.716125 
	C290.154846,371.884644 289.078491,368.253387 289.027039,364.471344 
	C288.900177,355.148468 288.897949,345.823883 288.846680,336.000000 
z"/>
<path fill="#000000" opacity="1.000000" stroke="none" 
	d="
M419.122375,388.892670 
	C422.079956,387.791565 424.513245,387.923859 425.987518,390.578033 
	C427.357574,393.044495 426.691559,395.493378 424.917938,397.523010 
	C421.960785,400.906830 418.973633,404.275635 415.814697,407.468323 
	C413.283630,410.026489 413.279816,412.012634 416.041809,414.482910 
	C419.636505,417.697998 422.925995,421.258698 426.292480,424.723419 
	C429.787598,428.320587 430.235626,431.692230 427.452881,434.248505 
	C423.806519,437.598145 420.773499,435.761444 417.975861,432.850067 
	C413.719788,428.420990 409.469299,423.986572 405.408661,419.754669 
	C401.916901,420.788086 401.339661,422.876984 401.335327,425.365662 
	C401.329559,428.697174 401.425751,432.038269 401.207245,435.357391 
	C400.993683,438.601685 399.025757,440.736481 395.809906,440.866302 
	C392.504242,440.999695 390.665497,438.847290 390.210083,435.631653 
	C390.024200,434.319061 390.014191,432.974243 390.012665,431.644012 
	C389.993805,415.150421 389.965485,398.656769 390.014069,382.163330 
	C390.020905,379.850037 390.164154,377.474396 390.708252,375.240631 
	C391.471710,372.106232 393.713776,370.411285 397.008514,370.854218 
	C400.231232,371.287445 401.315735,373.598694 401.316986,376.607605 
	C401.320251,384.437805 401.340210,392.268036 401.352234,400.098236 
	C401.354980,401.885620 401.352661,403.673035 401.352661,406.412598 
	C408.636475,401.119812 412.528015,393.863464 419.122375,388.892670 
z"/>
<path fill="#000000" opacity="1.000000" stroke="none" 
	d="
M343.919952,357.177979 
	C330.186981,341.503204 337.984161,316.598816 357.660583,312.158356 
	C369.008209,309.597473 378.496918,316.643280 379.269775,328.204102 
	C379.631378,333.613861 377.894928,336.246094 372.516663,337.526337 
	C366.213287,339.026794 359.818878,340.141296 353.495117,341.561951 
	C352.008636,341.895844 349.828705,341.735962 349.615387,343.958801 
	C349.447235,345.710815 350.545166,347.162964 351.887115,348.202301 
	C354.500702,350.226593 357.330566,351.301361 360.706329,349.980591 
	C363.088104,349.048706 365.162354,347.783752 366.809326,345.811188 
	C369.349121,342.769287 372.405304,340.225800 376.035583,343.663940 
	C379.414154,346.863617 376.969482,350.129211 374.703705,352.887512 
	C367.107697,362.134827 354.395782,363.987793 343.919952,357.177979 
M351.421936,327.703339 
	C350.843994,328.817017 349.679047,329.786469 350.696594,331.581909 
	C356.143860,330.466156 361.847717,330.136230 367.213379,327.876373 
	C364.002655,321.033417 358.217163,320.961151 351.421936,327.703339 
z"/>
<path fill="#000000" opacity="1.000000" stroke="none" 
	d="
M455.749512,409.917145 
	C451.016266,411.122803 446.410919,411.022797 442.310699,412.962677 
	C442.738129,419.762817 448.559143,422.772552 454.756592,419.604004 
	C457.086670,418.412689 458.417267,416.270905 460.161499,414.507355 
	C462.292755,412.352570 464.902618,411.922119 467.414398,413.658905 
	C470.164825,415.560699 469.688660,418.188599 468.352203,420.770966 
	C464.622314,427.978058 455.257141,433.076569 447.039368,432.132202 
	C438.233490,431.120300 433.092590,425.834930 430.554474,417.566895 
	C425.996674,402.719452 435.087158,385.961395 449.636261,382.547638 
	C461.103027,379.857056 471.789093,388.747162 471.137756,400.476166 
	C470.931427,404.191711 469.101440,406.808624 465.420135,407.773102 
	C462.365326,408.573425 459.248627,409.137482 455.749512,409.917145 
M444.277252,397.709930 
	C443.239166,399.335724 443.312531,400.800690 445.515198,400.844147 
	C450.132202,400.935242 454.527527,399.881195 458.798889,397.927673 
	C455.420349,391.769806 451.129547,391.708160 444.277252,397.709930 
z"/>
<path fill="#000000" opacity="1.000000" stroke="none" 
	d="
M395.881897,506.632141 
	C393.955353,510.484406 395.647400,513.789734 399.830139,514.614990 
	C404.149078,515.467102 408.147888,514.791443 411.107269,511.072723 
	C411.522034,510.551544 411.893799,509.993256 412.336243,509.497498 
	C414.599487,506.961731 417.303223,505.762054 420.186401,508.173187 
	C422.829315,510.383392 422.236267,513.129639 420.524078,515.805237 
	C416.036377,522.818176 406.393494,527.312195 398.545319,525.975891 
	C389.486877,524.433472 384.557678,519.371887 382.430298,509.323944 
	C379.976654,497.734955 386.132690,480.038605 402.936768,477.143616 
	C414.011536,475.235687 423.231415,482.782410 423.398193,494.059174 
	C423.468018,498.780426 421.493439,501.704559 416.824860,502.609924 
	C409.966766,503.939880 403.094849,505.198395 395.881897,506.632141 
M408.680420,488.643677 
	C402.194702,486.466797 396.209229,489.827087 395.319061,496.548309 
	C400.687500,494.923157 406.416931,495.451660 411.237000,492.814484 
	C411.315857,490.727386 410.292847,489.877014 408.680420,488.643677 
z"/>
<path fill="#000000" opacity="1.000000" stroke="none" 
	d="
M301.685303,412.660889 
	C305.030151,409.476410 308.649902,407.557983 312.772858,406.499481 
	C323.998627,403.617432 333.552429,409.189087 336.509338,420.394073 
	C340.434174,435.266876 332.039520,450.876312 318.183807,454.469421 
	C306.591217,457.475647 295.894196,450.953094 293.920898,439.200897 
	C292.273865,429.391815 294.171051,420.318085 301.685303,412.660889 
M310.458130,443.391113 
	C317.681519,444.427246 321.483734,442.664124 324.450623,436.856812 
	C326.433441,432.975677 326.401123,428.819580 325.661346,424.713806 
	C324.406952,417.751770 317.747284,414.894531 311.583771,418.442688 
	C303.768982,422.941467 301.396393,437.719116 310.458130,443.391113 
z"/>
<path fill="#000000" opacity="1.000000" stroke="none" 
	d="
M385.237183,415.428009 
	C385.525208,420.889618 385.457428,425.825012 383.525818,430.623474 
	C378.773254,442.429657 367.095795,449.444397 356.335754,446.793091 
	C345.490234,444.120697 340.127167,434.697815 341.788025,420.769257 
	C342.766083,412.566559 346.591553,405.825958 353.678864,401.425110 
	C366.997284,393.155060 382.993774,398.772339 385.237183,415.428009 
M366.964203,409.146179 
	C356.773621,408.670593 350.013458,418.096527 353.134979,428.428772 
	C355.049744,434.766632 359.234619,437.417694 365.150146,435.506805 
	C371.580963,433.429504 373.492645,427.900116 374.362762,421.928650 
	C375.164917,416.423309 372.667419,411.842224 366.964203,409.146179 
z"/>
<path fill="#000000" opacity="1.000000" stroke="none" 
	d="
M251.923355,329.213623 
	C251.706024,326.813263 252.350769,324.736572 250.832138,322.767090 
	C246.593277,322.626831 242.468918,323.999237 238.287445,324.840454 
	C234.748138,325.552460 231.790619,325.100739 230.686020,321.285828 
	C229.528549,317.288300 231.678940,314.670471 235.399826,313.881592 
	C249.379410,310.917633 263.402771,308.157318 277.427917,305.413605 
	C280.477875,304.816956 282.694946,306.143494 283.380280,309.278412 
	C284.134064,312.726257 282.669800,315.272552 279.381104,316.308167 
	C276.226196,317.301636 272.940216,318.136597 269.658936,318.413055 
	C264.229950,318.870575 262.866516,321.712555 263.278412,326.717041 
	C264.357300,339.825470 264.083435,352.981262 264.164520,366.121796 
	C264.175812,367.950745 264.281738,369.807800 264.017670,371.603851 
	C263.462006,375.382904 261.342896,377.739716 257.307434,377.473114 
	C253.409073,377.215576 252.638504,374.397766 252.590820,371.092499 
	C252.391617,357.288269 252.152557,343.484619 251.923355,329.213623 
z"/>
<path fill="#000000" opacity="1.000000" stroke="none" 
	d="
M379.543671,526.230957 
	C378.223450,528.972839 375.988556,529.710754 373.675415,530.132324 
	C365.832733,531.561707 357.983124,532.960571 350.113556,534.231140 
	C347.344421,534.678162 344.365387,535.183289 342.594025,532.001038 
	C340.872711,528.908813 342.054596,526.198669 343.812256,523.634460 
	C349.813873,514.878906 355.852966,506.148956 362.574188,496.399017 
	C357.191376,497.268158 352.887146,497.952118 348.587036,498.661133 
	C345.412170,499.184570 342.707184,498.456390 342.035217,495.005798 
	C341.418488,491.838959 343.056580,489.155487 346.164276,488.527344 
	C354.944031,486.752686 363.769043,485.078766 372.652954,483.992676 
	C377.344238,483.419189 379.674774,488.755585 376.857361,493.442078 
	C374.034241,498.138031 370.764038,502.565887 367.674469,507.100800 
	C364.515625,511.737335 361.338074,516.361145 357.532196,521.920349 
	C363.369751,520.888123 368.192017,519.949341 373.043579,519.200623 
	C378.379974,518.376953 380.215027,520.282166 379.543671,526.230957 
z"/>
<path fill="#000000" opacity="1.000000" stroke="none" 
	d="
M478.815277,378.741669 
	C484.992401,379.611206 490.051147,377.214661 495.328339,375.350220 
	C498.199341,374.335938 501.102173,375.607300 501.934937,378.990601 
	C502.783234,382.436981 501.083801,384.743805 497.860870,385.981445 
	C487.922333,389.797974 487.110474,390.989807 487.153412,401.653198 
	C487.174194,406.809265 487.145966,411.965607 487.184631,417.121490 
	C487.199829,419.147278 487.045959,421.134705 486.025360,422.920013 
	C484.647766,425.329742 482.493195,426.541534 479.768280,425.969360 
	C477.201874,425.430450 475.759735,423.506744 475.745331,420.916931 
	C475.676880,408.609589 475.701202,396.301575 475.731323,383.993896 
	C475.736542,381.867462 476.709412,380.162720 478.815277,378.741669 
z"/>
<path fill="#000000" opacity="1.000000" stroke="none" 
	d="
M297.027710,496.591461 
	C300.896515,497.568634 304.183655,498.028778 307.329407,495.172272 
	C308.533020,494.079346 310.700836,493.873993 312.479523,493.628937 
	C315.237823,493.248962 317.528137,494.182037 318.151855,497.180389 
	C318.806396,500.326996 317.651093,502.723541 314.542175,503.975708 
	C303.303741,508.502136 303.206787,508.630615 303.191376,520.526672 
	C303.185150,525.345703 303.212219,530.164795 303.251770,534.983643 
	C303.266907,536.830139 303.167114,538.648926 302.293396,540.321289 
	C301.028351,542.742737 299.105499,544.240173 296.283112,543.765503 
	C293.687012,543.328857 292.013580,541.486206 291.975708,538.944214 
	C291.792664,526.651367 291.700684,514.354492 291.828766,502.061646 
	C291.857819,499.273438 293.448456,496.998901 297.027710,496.591461 
z"/>
<path fill="#000000" opacity="1.000000" stroke="none" 
	d="
M323.675018,501.164093 
	C323.724487,499.190063 323.579437,497.654755 323.862549,496.202881 
	C324.475830,493.057892 326.485962,491.181580 329.723145,491.055878 
	C333.056305,490.926422 334.736847,493.141510 334.789459,496.065582 
	C335.005066,508.050598 335.120575,520.042542 334.932037,532.026550 
	C334.877106,535.519836 332.519745,538.118225 328.763184,537.922302 
	C324.750000,537.713013 323.794342,534.625916 323.784363,531.126465 
	C323.756409,521.297852 323.712372,511.469238 323.675018,501.164093 
z"/>
<path fill="#000000" opacity="1.000000" stroke="none" 
	d="
M327.297668,486.091736 
	C324.114532,484.894165 322.529449,482.829315 322.872559,479.847504 
	C323.245331,476.607544 325.029755,474.272980 328.485382,473.785034 
	C331.469788,473.363586 333.749268,474.496216 334.781921,477.427734 
	C335.939636,480.714172 334.703888,483.245056 331.950653,485.154114 
	C330.669006,486.042755 329.242310,486.370972 327.297668,486.091736 
z"/>
</svg>