<svg version="1.1" id="Layer_1" xmlns="http://www.w3.org/2000/svg" xmlns:xlink="http://www.w3.org/1999/xlink" x="0px" y="0px"
	 width="100%" viewBox="0 0 115 137" enable-background="new 0 0 115 137" xml:space="preserve">
<path fill="none" opacity="1.000000" stroke="#000000" stroke-linecap="round" stroke-linejoin="round" stroke-width="5.000000"
	d="
M57.000000,110.500000 
	C54.054832,111.653679 50.977375,111.027115 48.003597,110.909248 
	C44.462639,110.768906 43.023632,111.967941 43.480732,115.502495 
	C43.737770,117.490036 43.114624,119.559891 44.208393,122.000000 
	C51.993057,122.000000 59.996647,121.976746 67.999908,122.017784 
	C69.803497,122.027031 70.970039,121.474113 70.994530,119.499931 
	C71.019341,117.500237 70.998024,115.500000 71.000504,113.500000 
	C71.003571,111.026100 69.317757,111.051926 67.501366,110.969826 
	C64.167747,110.819122 60.788269,111.567978 57.500000,110.500000 
"/>
<path fill="none" opacity="1.000000" stroke="#000000" stroke-linecap="round" stroke-linejoin="round" stroke-width="4.000000"
	d="
M51.000000,16.500000 
	C48.555962,15.116807 46.014652,16.246780 44.054737,17.122505 
	C33.257172,21.947044 25.945601,30.059517 22.482681,41.494755 
	C22.016897,43.032871 21.743994,44.500000 22.500000,46.000000 
"/>
<path fill="none" opacity="1.000000" stroke="#000000" stroke-linecap="round" stroke-linejoin="round" stroke-width="4.000000"
	d="
M91.500000,58.500000 
	C92.678017,61.049240 91.443970,63.220993 90.521500,65.508667 
	C86.110107,76.448662 78.012283,83.393349 66.972527,86.913841 
	C63.969528,87.871475 60.625099,87.880470 57.471355,88.265152 
	C55.552155,88.499252 52.803749,88.296272 51.337906,85.073730 
	C48.677231,79.224487 46.784618,73.338753 45.014702,67.138535 
	C42.280067,57.558823 43.848160,48.356083 43.500000,39.000000 
"/>
<path fill="none" opacity="1.000000" stroke="#000000" stroke-linecap="round" stroke-linejoin="round" stroke-width="4.000000"
	d="
M62.500000,86.500000 
	C65.540306,80.253784 69.923050,74.539597 69.603592,66.995613 
	C69.538368,65.455223 71.056831,64.900665 72.999550,64.892479 
	C79.935196,64.863228 85.407249,60.459587 91.415329,57.808144 
	C94.045746,56.647305 94.089516,52.662994 93.343971,50.044422 
	C92.484337,47.025112 92.605080,43.815453 91.782394,41.065090 
	C88.159584,28.953510 80.210945,20.555984 68.008827,16.473625 
	C66.444389,15.950226 65.000000,15.783999 63.500000,16.500000 
"/>
<path fill="none" opacity="1.000000" stroke="#000000" stroke-linecap="round" stroke-linejoin="round" stroke-width="4.000000"
	d="
M91.000000,45.500000 
	C84.813553,42.767971 79.191879,38.587662 72.002335,38.406986 
	C70.857590,38.378220 70.008896,37.431175 69.847054,35.512905 
	C69.280182,28.793833 66.055473,22.883062 62.971893,17.014769 
	C61.293938,13.821485 53.205006,14.145105 51.537285,17.518433 
	C48.643215,23.372307 44.700733,28.883007 45.389679,36.010662 
	C45.491299,37.061985 44.365307,37.899593 42.524742,38.169025 
	C35.998299,39.124405 29.858137,41.355988 24.462759,45.450932 
	C21.411674,47.766624 19.632774,51.805298 21.617483,54.925266 
	C22.915710,56.966091 22.953279,58.872742 23.011936,60.999672 
	C23.177320,66.996376 26.658867,71.653603 30.133307,75.890686 
	C34.332684,81.011848 40.048859,84.471169 46.490395,86.530060 
	C48.314548,87.113098 49.936771,87.201050 51.500000,86.000000 
"/>
<path fill="none" opacity="1.000000" stroke="#000000" stroke-linecap="round" stroke-linejoin="round" stroke-width="4.000000"
	d="
M71.500000,39.000000 
	C71.500000,47.500000 71.500000,56.000000 71.500000,64.500000 
"/>
<path fill="none" opacity="1.000000" stroke="#000000" stroke-linecap="round" stroke-linejoin="round" stroke-width="5.000000"
	d="
M46.000000,36.500000 
	C53.666668,37.321732 61.333332,37.321732 69.000000,36.500000 
"/>
<path fill="none" opacity="1.000000" stroke="#000000" stroke-linecap="round" stroke-linejoin="round" stroke-width="4.000000"
	d="
M69.000000,66.500000 
	C61.333332,66.500000 53.666668,66.500000 46.000000,66.500000 
"/>
<path fill="none" opacity="1.000000" stroke="#000000" stroke-linecap="round" stroke-linejoin="round" stroke-width="4.000000"
	d="
M57.500000,89.000000 
	C57.500000,96.000000 57.500000,103.000000 57.500000,110.000000 
"/>
<path fill="none" opacity="1.000000" stroke="#000000" stroke-linecap="round" stroke-linejoin="round" stroke-width="4.000000"
	d="
M24.000000,58.500000 
	C29.656073,60.694374 34.896366,63.987114 41.004463,64.972321 
	C41.654472,65.077171 42.497169,65.322006 43.000000,64.500000 
"/>
</svg>