<?xml version="1.0" encoding="UTF-8" standalone="no"?>
<!-- Created with Inkscape (http://www.inkscape.org/) -->

<svg
   width="120"
   height="120"
   viewBox="0 0 120 120"
   version="1.1"
   id="svg1"
   xml:space="preserve"
   sodipodi:docname="golden-globe.svg"
   inkscape:version="1.4.2 (f4327f4, 2025-05-13)"
   xmlns:inkscape="http://www.inkscape.org/namespaces/inkscape"
   xmlns:sodipodi="http://sodipodi.sourceforge.net/DTD/sodipodi-0.dtd"
   xmlns="http://www.w3.org/2000/svg"
   xmlns:svg="http://www.w3.org/2000/svg"><sodipodi:namedview
     id="namedview1"
     pagecolor="#ffffff"
     bordercolor="#000000"
     borderopacity="0.25"
     inkscape:showpageshadow="2"
     inkscape:pageopacity="0.0"
     inkscape:pagecheckerboard="0"
     inkscape:deskcolor="#d1d1d1"
     inkscape:document-units="px"
     inkscape:zoom="1.5163076"
     inkscape:cx="-60.01421"
     inkscape:cy="75.512385"
     inkscape:window-width="1920"
     inkscape:window-height="991"
     inkscape:window-x="2391"
     inkscape:window-y="-9"
     inkscape:window-maximized="1"
     inkscape:current-layer="layer1" /><defs
     id="defs1" /><g
     inkscape:label="Слой 1"
     inkscape:groupmode="layer"
     id="layer1"><path
       style="fill:#000000;stroke-width:0.411178"
       d="m 53.759992,118.36338 c -4.053979,-0.28465 -10.023328,-1.36809 -12.365156,-2.24428 -4.412497,-1.65093 -4.469292,-6.7046 -0.100459,-8.9389 1.631526,-0.8344 1.631526,-0.8344 1.631526,-7.350929 0,-6.516522 0,-6.516522 0.9266,-7.519134 0.76173,-0.824212 1.192194,-1.033363 2.419311,-1.175474 1.412142,-0.163525 1.5334,-0.243841 2.246521,-1.48789 0.414593,-0.723277 1.224502,-1.892381 1.799798,-2.598022 3.189395,-3.912033 3.111757,-4.373279 -1.105424,-6.567303 -4.360911,-2.268791 -6.290897,-4.757274 -6.282441,-8.100443 0.0066,-2.628719 0.51013,-3.008926 3.98447,-3.008926 2.21352,0 2.350426,-0.03806 3.103354,-0.862404 0.79075,-0.865754 3.171686,-4.90362 3.171686,-5.378911 0,-0.139645 0.253779,-0.813178 0.563956,-1.496744 1.021021,-2.250119 0.890862,-2.512051 -1.923011,-3.869802 -4.816007,-2.323833 -8.698254,-5.762067 -11.341395,-10.044292 -0.826423,-1.33891 -1.219915,-1.726675 -1.752169,-1.726675 -2.044006,0 -3.051571,-1.436727 -4.069669,-5.803073 -0.669145,-2.869773 -0.449608,-3.905726 1.054691,-4.976887 0.804738,-0.573018 0.85193,-0.724519 1.019269,-3.272011 0.401429,-6.111184 4.061908,-13.413556 8.643663,-17.243433 1.247189,-1.042519 1.247189,-1.042519 1.247189,-5.9511606 0,-6.0479505 -0.04582,-5.9642848 3.123048,-5.7025404 6.121059,0.5056032 14.326606,1.3400891 15.836614,1.610544 13.921277,2.493433 15.651516,3.369211 18.678426,9.454201 2.049509,4.120138 2.283639,5.068575 1.728775,7.003257 -0.218549,0.762023 -0.100185,1.316986 0.698905,3.276996 1.634862,4.010019 2.267737,9.519248 1.54354,13.436784 -0.286465,1.549615 -0.265104,1.674359 0.427744,2.497757 1.125587,1.337686 1.170515,2.025576 0.291914,4.469685 -1.628304,4.529684 -2.427679,5.486046 -4.756729,5.690846 -1.405994,0.123627 -1.638784,0.260913 -3.50187,2.065161 -3.1537,3.054105 -6.355419,5.11689 -9.482647,6.109433 -1.465038,0.464981 1.470568,7.662425 4.107961,10.071773 0.597363,0.545716 1.021204,0.641496 2.838772,0.641496 4.040127,0 4.948951,1.386321 3.497484,5.335072 -0.820094,2.231063 -2.790368,4.111428 -6.192617,5.910038 -3.833307,2.026487 -3.947661,2.698787 -1.05492,6.202158 0.73742,0.893083 1.619496,2.176067 1.960171,2.851074 0.588277,1.165637 0.696565,1.236697 2.15567,1.414776 3.245656,0.396118 3.721706,1.647065 3.731417,9.805273 0.0071,5.71615 0.0071,5.71615 0.93693,6.0525 1.700472,0.6149 2.787438,1.77999 3.221365,3.45289 0.979178,3.77498 -1.159411,5.95414 -6.621389,6.747 -0.758485,0.1101 -1.59172,0.31025 -1.851633,0.44477 -1.613527,0.8351 -16.530713,1.31349 -24.189241,0.77575 z m 18.531996,-2.26068 c 3.468278,-0.3319 8.448846,-1.25387 10.178639,-1.88419 1.730758,-0.63067 2.191468,-1.24616 2.000212,-2.67213 -0.343837,-2.56346 -2.115387,-3.25971 -5.906482,-2.32135 -7.101101,1.75763 -28.988367,1.79012 -32.243809,0.0479 -0.284507,-0.15226 -1.270398,-0.35556 -2.19087,-0.45176 -2.705234,-0.28276 -4.88425,2.15136 -3.634018,4.05946 1.831,2.79446 18.555435,4.48925 31.796328,3.22211 z m 0.695332,-8.12724 c 7.44886,-0.91831 7.043969,-0.4684 6.946179,-7.7184 -0.07147,-5.301909 -0.158827,-6.433196 -0.513814,-6.657266 -0.256223,-0.16173 -7.078731,-0.271688 -17.019016,-0.274314 -16.591357,-0.0045 -16.591357,-0.0045 -17.035185,0.629292 -0.367746,0.525035 -0.443828,1.667631 -0.443828,6.665368 0,6.03172 0,6.03172 1.817961,6.48837 5.939066,1.49184 17.958585,1.88884 26.247703,0.86695 z m 1.300422,-17.345953 c 0,-0.225902 -0.742958,-1.348514 -1.651032,-2.494693 -3.78318,-4.775142 -3.387052,-6.637871 2.0278,-9.535294 2.796479,-1.496368 4.46084,-3.129265 4.9901,-4.895758 0.675579,-2.254908 2.390729,-2.050823 -17.235274,-2.050823 -17.570558,0 -17.570558,0 -17.379082,1.211701 0.366362,2.318427 2.095793,4.139247 5.642487,5.940672 4.46476,2.26771 5.223264,4.709487 2.516432,8.100881 -1.502709,1.88275 -2.575366,3.483502 -2.575366,3.843296 0,0.192953 3.980366,0.29077 11.831968,0.29077 10.110688,0 11.831967,-0.05977 11.831967,-0.410752 z M 72.577103,69.129748 c 0,-0.133285 -0.352825,-0.742699 -0.784045,-1.354267 -1.106513,-1.569243 -2.225953,-3.958257 -2.792146,-5.958755 -0.681814,-2.409008 -0.66048,-2.39491 -2.905409,-1.920808 -1.876752,0.396351 -5.25991,0.35262 -8.267535,-0.106867 -0.903227,-0.137992 -1.2321,-0.0855 -1.308296,0.208901 -0.752279,2.906571 -3.141718,8.192641 -3.920976,8.674248 -0.150445,0.09298 -0.199729,0.288492 -0.109513,0.434472 0.207321,0.335448 20.08792,0.358283 20.08792,0.02305 z M 61.743009,52.810058 c 0,-5.772349 0.467588,-5.322449 -4.897704,-4.712408 -4.674209,0.531457 -4.378489,0.399406 -3.830673,1.710522 1.412126,3.3797 4.591517,6.779965 7.170029,7.668143 1.597514,0.550272 1.558348,0.667556 1.558348,-4.666257 z m 5.935361,3.169379 c 1.96604,-1.579955 5.212339,-6.397024 4.78119,-7.094642 -0.163891,-0.265175 -4.448368,-0.83194 -7.29526,-0.965037 -1.568093,-0.07335 -1.568093,-0.07335 -1.646723,4.620015 -0.04324,2.581342 -0.01842,4.850223 0.05516,5.041979 0.195717,0.510026 2.686955,-0.462229 4.105635,-1.602315 z m -12.207729,0.701317 c 0,-0.08058 -0.565797,-0.841222 -1.257325,-1.690234 -0.691528,-0.849003 -1.742779,-2.525907 -2.336122,-3.726449 -1.0788,-2.182812 -1.0788,-2.182812 -2.374045,-1.988581 -0.712382,0.106832 -1.643382,0.374267 -2.068886,0.594308 -0.425505,0.220032 -0.972463,0.400067 -1.215464,0.400067 -1.806039,0 2.444367,3.50774 6.751661,5.571954 2.022692,0.969352 2.500181,1.129572 2.500181,0.838935 z m 18.083005,-1.523671 c 2.489163,-1.294526 5.692249,-3.840472 5.512017,-4.381186 -0.09287,-0.278593 -3.731855,-1.646466 -4.380141,-1.646466 -0.197644,0 -0.450668,0.288671 -0.562279,0.641487 -0.294175,0.929953 -2.640994,4.759803 -3.587537,5.85463 -1.412793,1.634112 -0.859947,1.548302 3.01794,-0.468465 z M 47.44589,48.08709 c 1.355834,-0.416479 2.499399,-0.782169 2.541257,-0.812634 0.04186,-0.03046 -0.07639,-0.716103 -0.262796,-1.523635 -0.380023,-1.64635 -0.575419,-1.726988 -2.583147,-1.066042 -0.671919,0.221193 -1.799014,0.493855 -2.504656,0.605921 -2.64477,0.420008 -2.695389,0.483644 -1.687574,2.121552 1.039655,1.689653 1.142812,1.705136 4.496916,0.674838 z m 37.474305,-0.102552 c 0.401818,-0.316062 0.883666,-1.053785 1.070768,-1.639365 0.187102,-0.585579 0.452983,-1.186578 0.590851,-1.33555 0.544224,-0.588045 0.1903,-0.956352 -1.103592,-1.148431 -2.430556,-0.360829 -6.708601,-1.883571 -9.847836,-3.505273 -3.491873,-1.803873 -3.227681,-1.85216 -4.722504,0.863234 -0.903277,1.640821 -0.903277,1.640821 0.686398,2.657718 3.022362,1.933378 7.412714,3.720536 10.772446,4.385081 1.751601,0.346456 1.76175,0.345357 2.553469,-0.277414 z M 56.611069,46.424202 c 1.646497,-0.231279 3.474752,-0.422857 4.062787,-0.425734 1.069153,-0.0054 1.069153,-0.0054 1.069153,-2.998849 0,-3.463713 0.154953,-3.348966 -2.851077,-2.111215 -1.176068,0.484251 -3.100547,1.197629 -4.276615,1.585288 -3.927362,1.294535 -3.660404,1.090851 -3.382102,2.580529 0.313918,1.680317 0.7083,2.147085 1.645609,1.947645 0.406236,-0.08639 2.085747,-0.346393 3.732245,-0.577664 z m 14.825599,0.13031 c 0,-0.16173 -0.224525,-0.375071 -0.498938,-0.474085 -3.173729,-1.145161 -3.951002,-2.627557 -2.546214,-4.856056 0.372997,-0.591708 1.21647,-2.005993 1.874396,-3.142863 1.351658,-2.335616 1.726077,-2.485178 3.390375,-1.354258 1.395024,0.947946 1.710755,0.900882 1.933834,-0.288233 0.439564,-2.343058 -2.537254,-2.649025 -6.12119,-0.629167 -1.191483,0.671505 -3.032342,1.657321 -4.090799,2.1907 -1.924477,0.969771 -1.924477,0.969771 -1.924477,4.427954 0,3.458183 0,3.458183 3.350018,3.896479 4.323437,0.565666 4.632995,0.581005 4.632995,0.229529 z M 43.21101,43.381435 c 3.838639,-0.705204 9.045661,-2.257168 14.659255,-4.369223 2.387227,-0.898167 10.207967,-4.735503 12.076744,-5.925592 9.065971,-5.773467 14.034397,-10.586301 14.034397,-13.594905 0,-1.129589 -1.185399,-4.00499 -1.651067,-4.00499 -0.118767,0 -0.789584,0.787753 -1.490714,1.750556 -1.261158,1.731839 -5.05915,5.27643 -7.264645,6.779946 -3.712745,2.531027 -4.851125,3.251489 -7.555361,4.781655 -9.049065,5.12032 -22.522454,9.781565 -28.273744,9.781565 -1.142462,0 -1.142462,0 -0.94442,1.211709 0.666365,4.077113 1.429115,4.50425 6.409555,3.589279 z M 85.605512,39.86343 c 0.206301,-0.784045 0.406392,-2.259473 0.444647,-3.278737 0.0696,-1.853197 0.0696,-1.853197 -4.349613,-1.853197 -4.419173,0 -4.419173,0 -4.502258,2.033571 -0.08309,2.033563 -0.08309,2.033563 2.380634,3.064906 1.355053,0.567229 2.675425,1.0333 2.934168,1.035703 0.258742,0.0027 0.662884,0.131855 0.898095,0.287689 1.011805,0.670307 1.800549,0.20664 2.194327,-1.289935 z M 43.852503,35.42145 c 1.915634,-0.509338 1.168565,-0.832511 -1.924478,-0.832511 -2.99363,0 -2.99363,0 -2.99363,0.752142 0,0.752142 0,0.752142 1.924476,0.558384 1.058462,-0.106563 2.405596,-0.321673 2.993632,-0.478015 z m 4.298253,-5.322958 c 0.106334,-1.650827 0.529872,-4.100975 1.042858,-6.032861 0.475096,-1.789186 0.830872,-3.277478 0.790618,-3.307317 -0.04026,-0.02984 -0.586385,-0.192757 -1.213621,-0.362036 -0.627239,-0.169279 -1.88221,-0.514296 -2.788828,-0.766713 -1.875385,-0.522131 -1.9819,-0.487325 -2.881836,0.94179 -2.217061,3.52072 -4.165552,8.820307 -4.165552,11.329633 0,0.977303 0,0.977303 4.518654,0.977303 4.518654,0 4.518654,0 4.697707,-2.779799 z m 5.527268,2.168106 c 0.907531,-0.33644 3.097685,-1.291792 4.867002,-2.123017 3.216943,-1.511306 3.216943,-1.511306 3.136183,-4.734065 -0.08075,-3.222758 -0.08075,-3.222758 -1.648849,-3.299812 -0.86245,-0.04235 -3.026329,-0.273403 -4.808623,-0.513385 -1.782294,-0.239981 -3.307687,-0.369174 -3.389766,-0.287098 -0.519063,0.519066 -1.707862,6.057357 -1.941617,9.045503 -0.197419,2.523567 -0.197419,2.523567 0.969094,2.523567 0.641578,0 1.909039,-0.275262 2.816576,-0.611693 z m 21.892702,0.326586 c 0.09691,-0.156807 -0.01626,-0.285106 -0.251453,-0.285106 -0.235211,0 -0.506952,0.128299 -0.603867,0.285106 -0.09691,0.156808 0.01626,0.285107 0.251453,0.285107 0.23522,0 0.506952,-0.128299 0.603867,-0.285107 z m 10.691541,-0.43968 c 0,-1.218776 -0.848056,-4.913135 -1.450404,-6.31836 -0.5694,-1.328359 -0.5694,-1.328359 -2.481855,0.528911 -1.051846,1.021499 -2.65016,2.471635 -3.551819,3.222508 -1.402867,1.168291 -1.639373,1.504204 -1.639373,2.328487 0,0.963241 0,0.963241 4.56173,0.963241 4.561721,0 4.561721,0 4.561721,-0.724787 z M 65.516401,26.56672 c 2.938938,-1.751368 7.630915,-4.914359 7.630915,-5.144209 0,-0.289859 0.145935,-0.298659 -3.278738,0.197528 -1.56809,0.227197 -3.652941,0.415576 -4.633,0.418623 -1.781923,0.0054 -1.781923,0.0054 -1.781923,2.714063 0,3.065639 -0.01521,3.052274 2.062746,1.813995 z M 61.743009,15.486725 c 0,-2.647247 -0.116367,-4.885091 -0.258593,-4.972991 -0.613051,-0.378895 -3.419042,1.077058 -4.825971,2.504055 -1.217688,1.235053 -4.038881,5.573687 -4.038881,6.21127 0,0.496929 8.072482,1.556726 8.909612,1.169702 0.117609,-0.05441 0.213833,-2.264788 0.213833,-4.912036 z m 9.337279,4.237744 c 1.774658,-0.451938 1.762893,-0.390553 0.505826,-2.638403 -1.924238,-3.44086 -4.713606,-5.935017 -7.38823,-6.606299 -0.744229,-0.186798 -0.744229,-0.186798 -0.744229,4.870118 0,5.056917 0,5.056917 3.064902,4.906346 1.685705,-0.08282 3.738475,-0.322111 4.561731,-0.531762 z M 50.934021,18.60594 c 0.933757,-1.840189 2.737032,-4.748332 3.442685,-5.552022 0.472735,-0.538418 0.81604,-1.105307 0.762895,-1.259747 -0.271866,-0.790057 -9.362622,4.722745 -9.362622,5.677668 0,0.378037 4.025056,1.758069 4.683908,1.605925 0.145606,-0.03359 0.358518,-0.24594 0.473134,-0.471824 z m 25.830215,-0.253945 c 1.50525,-0.917812 1.637989,-1.496414 0.575315,-2.507745 -0.836523,-0.796106 -4.549482,-3.208598 -4.938213,-3.208598 -0.09115,0 -0.606672,-0.209249 -1.145607,-0.46499 -1.028976,-0.48828 -1.695273,-0.296515 -0.953637,0.274466 0.64113,0.493596 2.316471,2.95602 3.281284,4.822841 0.957737,1.853116 1.574701,2.063374 3.180858,1.084026 z m 3.68044,-4.739398 C 81.324448,11.507019 80.410281,10.791273 74.287742,8.7919811 72.28334,8.1374415 69.760559,7.5413739 67.587718,7.208918 66.646857,7.0649666 64.722383,6.7665576 63.311099,6.5457839 60.991437,6.1829171 54.121734,5.5837852 50.481256,5.4268529 c -1.425539,-0.061465 -1.425539,-0.061465 -1.506475,3.180224 -0.06377,2.5543081 -0.0033,3.2079461 0.285107,3.0826301 0.201325,-0.08746 1.52073,-0.661526 2.932014,-1.275684 8.356808,-3.6366733 18.650075,-2.4721975 25.679937,2.905177 2.046141,1.565151 2.041683,1.564641 2.572837,0.293397 z"
       id="path1" /></g></svg>
