<?xml version="1.0" encoding="UTF-8" standalone="no"?>
<!-- Created with Inkscape (http://www.inkscape.org/) -->

<svg
   width="120"
   height="120"
   viewBox="0 0 120 120"
   version="1.1"
   id="svg1"
   xml:space="preserve"
   sodipodi:docname="saturn.svg"
   inkscape:version="1.4.2 (f4327f4, 2025-05-13)"
   xmlns:inkscape="http://www.inkscape.org/namespaces/inkscape"
   xmlns:sodipodi="http://sodipodi.sourceforge.net/DTD/sodipodi-0.dtd"
   xmlns="http://www.w3.org/2000/svg"
   xmlns:svg="http://www.w3.org/2000/svg"><sodipodi:namedview
     id="namedview1"
     pagecolor="#ffffff"
     bordercolor="#000000"
     borderopacity="0.25"
     inkscape:showpageshadow="2"
     inkscape:pageopacity="0.0"
     inkscape:pagecheckerboard="0"
     inkscape:deskcolor="#d1d1d1"
     inkscape:document-units="px"
     inkscape:zoom="1.5163076"
     inkscape:cx="-60.01421"
     inkscape:cy="75.512385"
     inkscape:window-width="1920"
     inkscape:window-height="991"
     inkscape:window-x="2391"
     inkscape:window-y="-9"
     inkscape:window-maximized="1"
     inkscape:current-layer="layer1" /><defs
     id="defs1" /><g
     inkscape:label="Слой 1"
     inkscape:groupmode="layer"
     id="layer1"><path
       style="fill:#000000;stroke-width:0.350524"
       d="m 55.119394,116.93533 c -7.074199,-0.49472 -12.646148,-1.64073 -16.039625,-3.29899 -2.823952,-1.37996 -3.239183,-2.16659 -3.239183,-6.13648 0,-3.29633 1.03878,-5.03582 3.354336,-5.61698 0.851949,-0.21383 0.851949,-0.21383 0.851949,-6.633614 0,-8.357065 0.467409,-8.962515 8.228378,-10.658503 3.7257,-0.814172 3.438533,-0.562994 4.733487,-4.140278 2.404804,-6.643221 3.099947,-13.902408 1.87874,-19.619113 -0.70006,-3.277114 -0.76285,-3.370166 -2.65574,-3.935676 C 51.410097,56.650225 50.1571,56.153774 49.4473,55.79247 48.156751,55.135552 48.156751,55.135552 45.099308,56.561326 18.779819,68.834847 10.563089,59.373844 30.129583,39.32471 c 5.009956,-5.133534 5.009956,-5.133534 5.009956,-7.128452 0,-10.564346 7.984333,-20.327597 18.948561,-23.1703245 C 57.465853,8.150175 64.258979,8.4304477 67.562989,9.5818842 70.016654,10.43698 70.016654,10.43698 74.222942,8.46051 84.810457,3.4856015 94.221851,1.5991345 97.762626,3.7420943 103.00418,6.9144045 99.889029,14.76472 88.917599,26.031925 c -4.266526,4.381547 -4.266526,4.381547 -4.443616,8.412571 -0.42535,9.681992 -5.690381,17.378104 -14.753235,21.565399 -1.450679,0.670256 -2.87899,1.218645 -3.174025,1.218645 -0.786621,0 -1.237188,1.074187 -1.805806,4.305181 -1.130243,6.422239 -0.248274,13.365071 2.547803,20.056221 1.025189,2.453332 1.08996,2.506954 3.412219,2.824855 3.660376,0.501084 7.87745,2.30115 8.613655,3.67676 0.187807,0.35092 0.341467,3.477805 0.341467,6.948633 0,6.31058 0,6.31058 1.689728,7.23025 2.354858,1.28168 2.867083,2.30059 2.867083,5.70322 0,3.50731 -0.537013,4.28356 -4.103305,5.93129 -5.155332,2.3819 -15.801758,3.67291 -24.990173,3.03038 z m 15.948832,-2.54359 c 7.530879,-1.45239 11.041503,-2.97337 11.041503,-4.78377 0,-1.04346 0.198251,-1.05584 -2.492815,0.15561 -9.259899,4.16857 -30.615834,4.09296 -39.864305,-0.14112 -2.128937,-0.97466 -2.341792,-0.94029 -2.023758,0.32686 0.410458,1.63539 5.645951,3.55702 12.48321,4.58181 3.943475,0.59106 17.539825,0.5002 20.856165,-0.13939 z m -2.278405,-4.05037 c 10.059214,-1.27691 15.521817,-4.13322 11.945242,-6.24595 -0.975276,-0.5761 -1.016947,-0.5694 -1.553903,0.25009 -3.687216,5.6274 -32.394075,5.89779 -38.096787,0.35882 -1.240904,-1.20527 -1.240904,-1.20527 -2.453668,-0.15439 -1.212762,1.05088 -1.212762,1.05088 -0.04379,2.06519 3.816085,3.31124 18.855427,5.1667 30.202902,3.72624 z m 0.593193,-4.22769 c 3.351649,-0.52797 6.885132,-1.6505 7.858593,-2.49652 0.656401,-0.57046 0.988056,-10.742728 0.362852,-11.129124 -0.186304,-0.115144 -1.023363,0.083 -1.860129,0.44032 -3.77144,1.610504 -6.681371,1.98149 -15.542342,1.98149 -9.623474,0 -12.320787,-0.379753 -17.438557,-2.455173 -0.569165,-0.230812 -0.613417,0.159934 -0.613417,5.416511 0,5.665276 0,5.665276 1.840249,6.500236 5.192478,2.35598 16.550051,3.13523 25.392751,1.74226 z M 66.160893,92.977255 c 6.856561,-0.759575 11.216763,-2.188899 11.216763,-3.676985 0,-0.812709 -3.569457,-2.405636 -6.246366,-2.787539 -1.689555,-0.241042 -1.689555,-0.241042 -1.110134,0.643267 1.259089,1.921613 -0.246578,3.051764 -4.934441,3.703789 -8.880407,1.235151 -17.94866,-0.902929 -15.254855,-3.596735 1.181636,-1.181633 -0.49295,-1.127359 -4.398771,0.142571 -4.213605,1.370002 -4.178428,2.533617 0.120562,3.988067 4.91073,1.66142 13.763558,2.341717 20.607242,1.583565 z m -0.162209,-4.204049 c 2.393753,-0.453968 2.332491,-0.234728 0.874551,-3.129813 -4.185685,-8.311658 -5.825763,-21.045631 -3.49322,-27.122241 0.116808,-0.304304 -0.784209,-0.416302 -3.349121,-0.416302 -2.105478,0 -3.508993,0.140198 -3.509103,0.350525 -1e-4,0.192787 0.236395,1.58685 0.525544,3.097918 1.33727,6.988455 -0.255201,16.377816 -4.05183,23.889957 -0.762519,1.508747 -1.321812,2.807759 -1.242875,2.886698 0.710253,0.710255 11.128852,1.034423 14.246054,0.443258 z m -35.06543,-29.235 C 50.559992,54.757934 81.498526,34.087889 93.676598,17.619354 103.48844,4.3507075 97.069518,0.91868479 77.72818,9.092149 c -4.945744,2.090023 -5.416983,2.374124 -4.860689,2.930417 0.249138,0.249139 1.107479,0.02769 2.751173,-0.709781 18.415226,-8.2623533 23.709176,-0.899617 9.697264,13.486802 -3.093537,3.17622 -7.538122,7.170553 -10.742462,9.654209 -1.349518,1.045998 -2.532537,1.993238 -2.628931,2.104977 -0.320179,0.371149 -7.828943,5.451371 -11.742547,7.944684 -28.239666,17.991166 -45.352124,15.389392 -26.860096,-4.083803 1.973564,-2.078277 2.610092,-3.170968 1.847193,-3.170968 -0.642764,0 -8.739303,8.723859 -10.350959,11.15295 -1.865649,2.811913 -3.695169,6.787127 -3.710054,8.061269 -0.03609,3.089433 4.240294,4.430681 9.805182,3.075301 z M 64.911665,55.61549 c 10.041449,-2.450478 17.899111,-12.142722 17.899111,-22.078139 0,-1.557916 0.160764,-1.626506 -3.718955,1.586636 -7.022305,5.815795 -16.143116,11.970389 -24.848736,16.767582 -1.927882,1.062349 -3.558181,1.975176 -3.62289,2.028501 -0.258452,0.212992 1.644016,1.0129 3.798152,1.596963 2.889639,0.783485 7.508653,0.826825 10.493318,0.09846 z M 35.910671,54.083923 c 18.453866,-4.650634 53.52298,-30.949767 55.528932,-41.642424 0.682396,-3.6374617 -5.398908,-3.4920138 -14.32484,0.342612 -2.864113,1.230435 -1.595129,2.087403 1.680789,1.135068 5.89798,-1.714588 8.531777,0.114181 6.470363,4.492673 -4.001735,8.499777 -29.48322,27.024592 -43.742308,31.800279 -8.146895,2.728576 -11.127377,-0.05755 -6.501918,-6.077937 1.284564,-1.671959 1.533418,-2.224773 1.341222,-2.979452 -0.592951,-2.328288 -8.571319,8.608183 -8.580947,11.762465 -0.0062,2.012764 3.037885,2.449675 8.128707,1.166716 z m 2.498982,-4.89514 c 0.738228,-0.171332 1.418953,-0.388228 1.512717,-0.481995 0.137087,-0.137086 -1.698959,-3.776824 -2.24245,-4.445386 -0.249458,-0.306863 -2.159599,2.240078 -2.556301,3.408514 -0.631012,1.858572 0.189059,2.237624 3.286034,1.518867 z m 9.764052,-3.998946 C 59.000234,39.634904 69.41653,32.43819 77.000611,25.273063 80.128804,22.317674 80.128804,22.317674 78.698884,20.231408 69.585414,6.9347576 49.539831,7.1761635 40.712549,20.688877 c -5.08758,7.788015 -4.911976,17.756924 0.450701,25.585796 1.307812,1.90925 1.117645,1.938678 7.010455,-1.084836 z M 39.83971,32.864834 c -0.297654,-1.185942 0.115395,-3.217454 0.699768,-3.441698 0.682757,-0.261998 1.260012,0.454253 1.260012,1.563407 0,2.333021 -1.48777,3.758928 -1.95978,1.878291 z m 1.492415,-5.664497 c -2.086746,-2.086745 7.906022,-13.173689 11.421358,-12.67196 1.614013,0.230361 1.104986,1.257003 -1.200203,2.420658 -3.041711,1.535453 -6.514638,5.076602 -7.962528,8.118949 -1.033413,2.171438 -1.643534,2.747447 -2.258627,2.132353 z m 41.007899,-7.740733 c 2.854869,-3.861484 2.077103,-5.061547 -2.528745,-3.90178 -1.887434,0.475261 -1.8828,0.284765 -0.06759,2.779021 1.742084,2.39377 1.67735,2.365776 2.596333,1.122759 z M 44.927242,65.31755 c -2.562217,-2.562215 0.931589,-6.515551 3.804279,-4.304647 1.35992,1.046631 1.427444,2.982613 0.148633,4.261424 -1.374053,1.374054 -2.608586,1.387552 -3.952912,0.04322 z m 2.97005,-1.635952 c 0.303743,-0.79154 -0.04613,-1.195201 -1.035894,-1.195201 -0.678981,0 -0.855622,0.180913 -0.855622,0.876311 0,1.025704 1.521831,1.28227 1.891516,0.31889 z M 88.223748,54.96603 c -0.295749,-1.576493 -1.861459,-3.284035 -3.269454,-3.565634 -1.881104,-0.376221 -2.468344,-2.233902 -0.706171,-2.233902 1.21559,0 3.001437,-1.313002 3.460706,-2.544397 0.887907,-2.380663 1.054823,-2.713459 1.36094,-2.713459 0.478018,0 0.966421,0.738907 1.420039,2.148387 0.499026,1.550556 1.317788,2.33108 3.076369,2.932702 1.939548,0.663531 2.01973,1.765897 0.164781,2.265384 -1.719957,0.463136 -2.915039,1.656767 -3.413811,3.409669 -0.538646,1.893048 -1.761755,2.069059 -2.093399,0.30125 z m 2.080443,-3.90444 c 1.008719,-0.886941 1.008719,-0.886941 0.02206,-1.916804 -1.194032,-1.246296 -1.1794,-1.246606 -2.201324,0.04676 -0.820024,1.037836 -0.820024,1.037836 0,1.902431 1.000793,1.055195 0.941354,1.056078 2.179272,-0.03238 z m -0.04477,-17.223725 c -0.240987,-0.08406 -0.438158,-0.545004 -0.438158,-1.024316 0,-1.140703 1.519422,-1.053513 1.68352,0.09661 0.10918,0.765206 -0.471389,1.197689 -1.245362,0.927709 z M 31.078938,19.48551 c -0.559037,-1.76306 -0.924825,-2.239902 -2.092509,-2.727791 -1.301752,-0.543907 -1.446533,-1.145284 -0.398348,-1.65462 0.325905,-0.158365 0.868591,-0.421362 1.20597,-0.584443 0.337379,-0.163078 0.791853,-0.833455 1.00994,-1.489726 0.526117,-1.58319 1.485028,-1.58319 2.011144,0 0.218088,0.656271 0.67256,1.326648 1.009939,1.489726 0.337379,0.163081 0.889454,0.431716 1.226834,0.59697 1.078928,0.528481 0.954842,1.436451 -0.228658,1.673151 -1.238408,0.247681 -1.731079,0.745832 -2.099277,2.122631 -0.306908,1.147623 -1.347977,1.510946 -1.645035,0.574102 z"
       id="path1" /></g></svg>
