<svg version="1.1" id="Layer_1" xmlns="http://www.w3.org/2000/svg" xmlns:xlink="http://www.w3.org/1999/xlink" x="0px" y="0px"
	 width="100%" viewBox="0 0 512 432" enable-background="new 0 0 512 432" xml:space="preserve">
<path fill="#000000" opacity="1.000000" stroke="none" 
	d="
M76.601486,274.591858 
	C84.819855,271.705780 84.906006,271.705963 84.922874,263.638123 
	C85.000221,226.647171 85.013832,189.656067 85.089249,152.665115 
	C85.095749,149.478409 84.032112,147.116119 81.669487,144.788879 
	C71.879524,135.145569 70.218803,123.374710 75.945915,111.440872 
	C79.247070,104.562080 80.425987,97.880531 79.446640,90.716095 
	C77.032455,73.055008 85.099091,61.115589 99.603783,52.474304 
	C112.405502,44.847580 126.512520,40.837364 140.854355,37.371357 
	C170.930237,30.102890 201.555267,28.613510 232.326996,27.622772 
	C253.354721,26.945757 274.319366,27.891668 295.211548,29.183735 
	C306.993469,29.912382 318.936218,31.313551 330.713257,33.784542 
	C341.066132,35.956711 351.538666,37.781471 361.598755,40.922848 
	C376.128540,45.459923 390.636597,50.450294 401.665253,61.869621 
	C407.224548,67.625839 410.271484,74.365372 410.041748,82.500580 
	C409.900665,87.495811 410.230164,92.512550 409.917206,97.492531 
	C409.560272,103.172104 411.064941,108.247437 413.382935,113.341660 
	C418.657227,124.932938 415.460663,136.214508 407.416870,143.938660 
	C404.662201,146.583832 403.333130,149.304871 403.338867,153.091293 
	C403.396057,190.916107 403.458038,228.741623 403.241730,266.565369 
	C403.209808,272.143555 406.926727,273.135834 410.592102,274.431671 
	C418.108398,277.088928 425.565491,279.828705 432.434631,283.951508 
	C440.639343,288.875885 447.488098,294.897827 449.764069,304.782684 
	C450.257446,306.925446 450.363770,309.043182 450.369629,311.217499 
	C450.408722,325.711365 450.456085,340.205475 450.593872,354.698608 
	C450.670258,362.733734 447.452301,369.292023 441.603577,374.498566 
	C431.830139,383.198822 420.273285,388.754547 408.165222,393.518311 
	C400.447876,396.554626 392.563202,399.042236 384.595398,400.965607 
	C378.198792,402.509735 371.902588,404.584137 365.258636,405.378937 
	C356.569977,406.418427 348.015839,408.532867 339.356750,409.882538 
	C329.191833,411.466949 318.997498,413.681122 308.777985,413.906891 
	C292.939331,414.256744 277.208466,415.958923 261.393311,416.505981 
	C242.033218,417.175720 222.801254,415.422852 203.509750,414.825562 
	C187.998428,414.345337 172.627930,412.718353 157.275635,410.967773 
	C147.762619,409.882996 138.206177,408.571411 128.831406,406.306854 
	C122.090218,404.678467 115.185829,403.718872 108.457710,402.045013 
	C101.247169,400.251129 93.963707,398.469452 87.060608,395.785889 
	C76.455528,391.663177 65.517647,388.079498 56.183983,381.230865 
	C50.276310,376.896057 44.736450,372.237488 40.973751,365.694244 
	C39.384483,362.930511 38.784962,360.235931 38.795197,357.176147 
	C38.846462,341.846313 39.105492,326.509766 38.739895,311.188751 
	C38.521412,302.032959 42.601673,295.108490 48.810925,289.360107 
	C56.595127,282.153687 66.274376,278.058044 76.601486,274.591858 
M242.512848,328.647003 
	C277.834351,328.945709 313.000122,327.320984 347.488739,318.918793 
	C357.918488,316.377899 368.339081,313.588715 377.922485,308.355835 
	C382.086609,306.082062 383.775635,303.195557 383.760651,298.416931 
	C383.618195,252.939224 383.665924,207.460922 383.626434,161.982819 
	C383.625061,160.385712 384.134308,158.633286 382.809357,157.230331 
	C381.220490,156.495956 379.934296,157.400894 378.530762,157.874054 
	C374.142975,159.353302 369.811432,161.261139 365.292236,162.037918 
	C353.547852,164.056549 342.057526,167.195496 330.262787,169.121628 
	C315.950989,171.458786 301.552399,172.898773 287.198395,173.870728 
	C259.117004,175.772202 230.907745,175.462128 202.814453,173.894867 
	C185.096100,172.906418 167.411194,170.379837 149.863174,167.588394 
	C136.959091,165.535675 124.301033,161.936234 111.533539,159.025146 
	C105.372665,157.620392 105.282623,157.619202 105.266769,163.962494 
	C105.160591,206.441010 105.087914,248.919601 105.035950,291.398224 
	C105.032494,294.224945 105.095955,297.078430 105.478233,299.871552 
	C105.863708,302.688019 106.625885,305.537933 109.471779,306.993835 
	C113.748734,309.181915 117.945007,311.644470 122.434410,313.279755 
	C139.352707,319.442261 157.084412,322.218903 174.794220,324.701935 
	C196.901154,327.801422 219.201920,328.594482 242.512848,328.647003 
M274.277405,395.698059 
	C282.036743,394.358795 289.912323,395.019684 297.708557,394.342072 
	C322.385345,392.197296 346.790558,388.478516 370.972870,382.958618 
	C387.209534,379.252441 403.109711,374.814056 417.837952,366.996490 
	C424.115021,363.664703 430.586273,359.904755 430.603149,351.215881 
	C430.626465,339.217438 430.719452,327.218994 430.704346,315.220673 
	C430.698090,310.244659 428.688110,306.243286 424.544067,303.318451 
	C420.871490,300.726318 417.081940,298.409546 412.882629,296.732300 
	C410.056976,295.603729 407.611908,293.185883 403.924530,294.443054 
	C403.727478,297.985199 403.472229,301.449860 403.363373,304.919128 
	C403.288727,307.298981 402.596710,309.377411 401.573120,311.557983 
	C396.886658,321.541534 387.975739,326.350464 378.537842,330.175079 
	C370.590790,333.395538 362.371338,336.101868 354.064606,338.221161 
	C348.489685,339.643524 342.863617,341.459167 337.191528,342.023163 
	C326.296326,343.106445 315.505951,344.940125 304.614777,346.084656 
	C278.199524,348.860565 251.801880,348.843719 225.310913,348.713806 
	C207.753357,348.627686 190.487839,345.884918 173.037643,345.077759 
	C165.097885,344.710510 157.227066,342.862854 149.478638,341.400757 
	C143.131134,340.203033 136.551071,338.866486 130.241455,336.639008 
	C121.560356,333.574341 112.550148,331.508240 104.248093,327.289612 
	C92.347694,321.242584 84.493019,312.801392 85.965828,298.372406 
	C86.016197,297.878967 85.956802,297.373352 85.937027,296.873871 
	C85.827263,294.100708 84.665298,292.961090 81.746292,293.783661 
	C77.067635,295.102142 72.916451,297.464600 68.703201,299.777252 
	C61.797386,303.567871 58.363087,308.771118 58.962059,317.142273 
	C59.661972,326.924164 59.776424,336.850433 58.937004,346.610138 
	C58.153683,355.717590 62.343822,360.846283 69.506531,365.025787 
	C81.206345,371.852783 93.873337,375.990448 106.730217,380.024170 
	C123.470711,385.276428 140.676056,388.139648 157.879807,390.447510 
	C170.507645,392.141541 183.206955,393.896027 196.048096,394.491943 
	C221.819046,395.687805 247.535233,398.341400 274.277405,395.698059 
M389.702026,81.772690 
	C389.108643,77.561050 386.012604,74.910042 382.914124,72.972687 
	C370.140228,64.985626 355.953522,60.547539 341.352997,57.176247 
	C334.374146,55.564827 327.290070,54.813358 320.281189,53.591991 
	C305.183228,50.961029 289.981293,49.096554 274.749634,48.524689 
	C254.118317,47.750092 233.435486,48.305912 212.774979,48.366066 
	C199.428848,48.404922 186.269485,50.647366 173.117935,52.454956 
	C160.007874,54.256844 146.856979,56.246704 134.187134,60.424133 
	C124.426422,63.642376 114.505157,66.456223 106.112877,72.772728 
	C100.872154,76.717186 98.890160,81.806572 100.900581,86.564476 
	C102.340141,89.971359 105.430923,91.877678 108.334793,93.717392 
	C122.309074,102.570641 138.206390,106.159904 154.057266,109.489555 
	C166.550659,112.113930 179.381470,112.857292 192.046143,114.520714 
	C206.539398,116.424316 221.237854,116.789589 235.852798,117.736320 
	C253.050903,118.850388 270.087585,116.067574 287.212189,115.349014 
	C298.804199,114.862610 310.459320,113.627388 321.862762,111.518669 
	C333.867249,109.298805 346.028870,107.555885 357.678131,103.536423 
	C367.085999,100.290344 376.585083,97.298325 384.618134,91.156517 
	C387.393677,89.034454 390.062012,86.629112 389.702026,81.772690 
M308.691345,151.122086 
	C315.833160,150.782410 322.757812,148.928436 329.843811,148.065338 
	C344.314850,146.302689 358.570099,143.003876 372.489716,138.597519 
	C378.774872,136.607941 385.195312,134.658585 390.724945,130.849823 
	C393.181824,129.157532 396.394531,126.700623 395.263641,123.808922 
	C393.691681,119.789345 392.229797,115.604675 390.533844,111.273170 
	C383.520966,114.974655 377.021667,118.127655 370.207733,120.647240 
	C361.944763,123.702667 353.400757,125.514694 344.869049,127.556038 
	C336.782867,129.490768 328.598816,131.032928 320.433533,131.962585 
	C306.902405,133.503159 293.406555,135.561798 279.719543,135.860840 
	C263.933990,136.205719 248.242111,138.797241 232.361252,137.428619 
	C218.268463,136.214081 204.192856,134.986481 190.213791,132.764969 
	C181.823288,131.431580 173.208755,133.034668 164.855637,130.915085 
	C156.969116,128.913910 148.814499,128.503204 140.856308,126.630966 
	C131.969757,124.540321 123.277222,122.023964 114.805298,118.743965 
	C109.442131,116.667526 104.283440,114.062981 98.675972,111.534279 
	C97.395348,114.360016 96.010689,116.975243 95.002518,119.728333 
	C92.654388,126.140587 94.145958,130.020279 100.162910,133.160995 
	C105.629639,136.014496 111.532715,137.766678 117.466949,139.300110 
	C128.365707,142.116394 139.405899,144.256439 150.451004,146.454285 
	C166.928360,149.733124 183.577606,152.506180 200.162476,153.508057 
	C236.019257,155.674072 272.014343,156.503052 308.691345,151.122086 
z"/>
</svg>